<svg width="48" height="48" viewBox="0 0 48 48" fill="none" xmlns="http://www.w3.org/2000/svg">
<circle cx="24" cy="24" r="24" fill="#F79940"/>
<g clip-path="url(#clip0_295_701)">
<path d="M23.9999 11C20.4663 11 20.0259 11.0171 18.6431 11.0756C17.2545 11.1438 16.3153 11.3591 15.4865 11.6809C14.6191 12.0083 13.8336 12.521 13.1847 13.1832C12.5207 13.8306 12.0077 14.6165 11.6824 15.485C11.3606 16.3137 11.1453 17.253 11.0771 18.6416C11.0145 20.0252 11.0015 20.4648 11.0015 23.9984C11.0015 27.5319 11.0186 27.9723 11.0771 29.3552C11.1453 30.7397 11.3606 31.683 11.6824 32.5117C12.0098 33.3791 12.5225 34.1646 13.1847 34.8136C13.8321 35.4776 14.618 35.9906 15.4865 36.3159C16.3153 36.6336 17.2586 36.8529 18.6431 36.9212C20.0268 36.9837 20.4663 36.9968 23.9999 36.9968C27.5334 36.9968 27.9738 36.9797 29.3567 36.9212C30.7412 36.8529 31.6845 36.6328 32.5133 36.3159C33.3806 35.9884 34.1662 35.4757 34.8151 34.8136C35.4799 34.1669 35.993 33.3807 36.3174 32.5117C36.6351 31.683 36.8544 30.7397 36.9227 29.3552C36.9853 27.9715 36.9983 27.5319 36.9983 23.9984C36.9983 20.4648 36.9812 20.0244 36.9227 18.6416C36.8544 17.2571 36.6343 16.3089 36.3174 15.485C35.9899 14.6176 35.4772 13.8321 34.8151 13.1832C34.1684 12.5183 33.3822 12.0052 32.5133 11.6809C31.6845 11.3591 30.7412 11.1438 29.3567 11.0756C27.973 11.013 27.5334 11 23.9999 11ZM23.9999 13.34C27.4701 13.34 27.8844 13.3571 29.2559 13.4156C30.521 13.4749 31.21 13.6861 31.6674 13.8649C32.233 14.0736 32.7448 14.4059 33.1657 14.8374C33.5965 15.2565 33.9275 15.7672 34.1342 16.3316C34.3129 16.7891 34.5242 17.4781 34.5835 18.7431C34.642 20.1146 34.6591 20.5298 34.6591 23.9992C34.6591 27.4686 34.642 27.8838 34.5786 29.2553C34.5104 30.5203 34.2991 31.2093 34.1212 31.6668C33.875 32.2769 33.6004 32.7035 33.147 33.165C32.7247 33.5939 32.2132 33.9245 31.6488 34.1335C31.197 34.3123 30.4983 34.5235 29.2283 34.5828C27.8495 34.6413 27.4433 34.6584 23.9641 34.6584C20.485 34.6584 20.0796 34.6413 18.6991 34.5779C17.4341 34.5097 16.7361 34.2984 16.2787 34.1205C15.6612 33.8743 15.2379 33.5997 14.7845 33.1463C14.3271 32.6889 14.0362 32.2534 13.8119 31.6481C13.6299 31.1963 13.4219 30.4976 13.3545 29.2276C13.3082 27.8651 13.2863 27.4426 13.2863 23.9797C13.2863 20.5184 13.3082 20.0951 13.3545 18.7155C13.4219 17.4456 13.6299 16.7484 13.8119 16.2951C14.0362 15.6768 14.3279 15.2542 14.7845 14.7968C15.2371 14.3442 15.6612 14.0517 16.2787 13.8226C16.7361 13.6447 17.417 13.4334 18.6869 13.3701C20.0658 13.3205 20.472 13.3026 23.9463 13.3026L23.9999 13.34ZM23.9999 17.3269C23.1235 17.3266 22.2556 17.499 21.4458 17.8342C20.6361 18.1695 19.9003 18.661 19.2806 19.2807C18.6609 19.9004 18.1694 20.6362 17.8341 21.446C17.4989 22.2557 17.3265 23.1236 17.3268 24C17.3265 24.8764 17.4989 25.7443 17.8341 26.554C18.1694 27.3638 18.6609 28.0996 19.2806 28.7193C19.9003 29.339 20.6361 29.8305 21.4458 30.1658C22.2556 30.501 23.1235 30.6734 23.9999 30.6731C24.8763 30.6734 25.7442 30.501 26.5539 30.1658C27.3637 29.8305 28.0994 29.339 28.7192 28.7193C29.3389 28.0996 29.8304 27.3638 30.1656 26.554C30.5009 25.7443 30.6733 24.8764 30.6729 24C30.6733 23.1236 30.5009 22.2557 30.1656 21.446C29.8304 20.6362 29.3389 19.9004 28.7192 19.2807C28.0994 18.661 27.3637 18.1695 26.5539 17.8342C25.7442 17.499 24.8763 17.3266 23.9999 17.3269ZM23.9999 28.3331C21.6046 28.3331 19.6668 26.3952 19.6668 24C19.6668 21.6048 21.6046 19.6669 23.9999 19.6669C26.3951 19.6669 28.3329 21.6048 28.3329 24C28.3329 26.3952 26.3951 28.3331 23.9999 28.3331ZM32.5019 17.0604C32.5014 17.4745 32.3366 17.8715 32.0437 18.1642C31.7507 18.4569 31.3535 18.6213 30.9394 18.6213C30.7347 18.6213 30.5319 18.5809 30.3428 18.5026C30.1536 18.4242 29.9817 18.3094 29.8369 18.1646C29.6921 18.0198 29.5773 17.8479 29.4989 17.6587C29.4206 17.4696 29.3803 17.2668 29.3803 17.0621C29.3803 16.8573 29.4206 16.6546 29.4989 16.4654C29.5773 16.2762 29.6921 16.1043 29.8369 15.9596C29.9817 15.8148 30.1536 15.6999 30.3428 15.6216C30.5319 15.5432 30.7347 15.5029 30.9394 15.5029C31.7983 15.5029 32.5019 16.2016 32.5019 17.0604Z" fill="white"/>
</g>
<defs>
<clipPath id="clip0_295_701">
<rect width="26" height="26" fill="white" transform="translate(11 11)"/>
</clipPath>
</defs>
</svg>
