<svg width="48" height="48" viewBox="0 0 48 48" fill="none" xmlns="http://www.w3.org/2000/svg">
<circle cx="24" cy="24" r="24" fill="#F79940"/>
<path d="M36.454 17.7202C36.303 17.1805 36.0152 16.6889 35.6185 16.2931C35.2218 15.8972 34.7296 15.6105 34.1896 15.4607C32.1624 14.9187 24.013 14.9187 24.013 14.9187C24.013 14.9187 15.8791 14.9057 13.8307 15.4607C13.2916 15.6111 12.8003 15.8982 12.4045 16.294C12.0087 16.6898 11.7217 17.1811 11.5712 17.7202C11.1862 19.7955 10.9966 21.9024 11.0049 24.013C11.0011 26.1136 11.1907 28.21 11.5712 30.2758C11.7221 30.8153 12.0093 31.3069 12.4049 31.7034C12.8006 32.0999 13.2916 32.3881 13.8307 32.5402C15.8579 33.0822 24.013 33.0822 24.013 33.0822C24.013 33.0822 32.1421 33.0822 34.1896 32.5402C34.7296 32.3888 35.2215 32.1009 35.6181 31.7043C36.0147 31.3077 36.3025 30.8158 36.454 30.2758C36.8269 28.2112 37.0089 26.1117 36.9959 24.013C37.0089 21.9005 36.831 19.7978 36.454 17.7202ZM21.4097 27.9025V20.1065L28.1933 24.013L21.4097 27.9025Z" fill="white"/>
</svg>
