<svg width="48" height="48" viewBox="0 0 48 48" fill="none" xmlns="http://www.w3.org/2000/svg">
<circle cx="24" cy="24" r="24" fill="#F79940"/>
<g clip-path="url(#clip0_295_703)">
<path d="M36.9488 15.9505C35.9757 16.3783 34.945 16.6608 33.8898 16.789C35.0021 16.1213 35.8349 15.0732 36.2338 13.8388C35.1817 14.449 34.0366 14.8824 32.8441 15.1217C32.0422 14.2649 30.9799 13.6967 29.8221 13.5052C28.6643 13.3138 27.4756 13.5098 26.4406 14.0629C25.4056 14.616 24.582 15.4952 24.0977 16.5641C23.6133 17.633 23.4953 18.8319 23.7619 19.9748C19.3314 19.7676 15.4038 17.6388 12.7769 14.423C12.2988 15.2362 12.0487 16.1633 12.053 17.1067C12.0523 17.9836 12.2683 18.8472 12.6816 19.6207C13.0949 20.3942 13.6928 21.0536 14.4222 21.5405C13.5769 21.5149 12.7501 21.2873 12.0107 20.8767V20.9408C12.0105 22.1718 12.4359 23.365 13.2148 24.3182C13.9937 25.2714 15.0782 25.9259 16.2845 26.1709C15.8275 26.293 15.3567 26.3555 14.8837 26.357C14.5417 26.357 14.2151 26.3237 13.8893 26.2635C14.2326 27.3228 14.8976 28.2487 15.7917 28.9123C16.6859 29.576 17.7647 29.9443 18.878 29.9661C16.9917 31.4433 14.6642 32.2447 12.2683 32.2419C11.8439 32.2436 11.4199 32.2197 10.9984 32.1704C13.4424 33.7365 16.2848 34.5678 19.1876 34.5657C28.992 34.5657 34.3496 26.4447 34.3496 19.4117C34.3496 19.1875 34.3496 18.9592 34.3326 18.73C35.3806 17.9789 36.2838 17.0441 36.9984 15.9708L36.9488 15.9505Z" fill="white"/>
</g>
<defs>
<clipPath id="clip0_295_703">
<rect width="26" height="26" fill="white" transform="translate(11 11)"/>
</clipPath>
</defs>
</svg>
