<svg width="172" height="60" viewBox="0 0 172 60" fill="none" xmlns="http://www.w3.org/2000/svg">
<g clip-path="url(#clip0_286_925)">
<path d="M25.6726 27.0109L0 11.4909L21.2703 0L45.1304 24.4584L10.579 60H0.170702C0.170702 60 8.66536 48.774 12.8992 43.3534C17.1331 37.9328 25.6726 27.0109 25.6726 27.0109Z" fill="white"/>
<path d="M37.8284 59.9585C42.6042 59.9585 46.4758 55.9876 46.4758 51.0892C46.4758 46.1909 42.6042 42.22 37.8284 42.22C33.0526 42.22 29.181 46.1909 29.181 51.0892C29.181 55.9876 33.0526 59.9585 37.8284 59.9585Z" fill="white"/>
<path d="M60.8889 24.9906L64.1075 5.91821L70.0192 5.93203C72.3521 5.94125 74.0936 6.39508 75.2435 7.29352C76.3935 8.19197 76.9176 9.4544 76.8158 11.0808C76.687 13.0896 75.6141 14.5126 73.5972 15.3496C74.3088 15.6012 74.9094 16.1053 75.2907 16.771C75.7091 17.519 75.8897 18.3823 75.8073 19.2405C75.689 21.0835 74.98 22.5026 73.6803 23.4978C72.3805 24.493 70.6039 24.9906 68.3503 24.9906H60.8889ZM66.6366 16.8838L65.8572 21.4406L68.4739 21.4544C69.2028 21.4818 69.9205 21.2642 70.5178 20.8347C70.781 20.6415 71.0029 20.3951 71.1698 20.1106C71.3366 19.8261 71.445 19.5097 71.4881 19.1806C71.7262 17.7262 71.1811 16.9645 69.853 16.8954L66.6366 16.8838ZM67.133 13.8706H69.1904C71.089 13.8276 72.1529 13.0789 72.382 11.6245C72.5872 10.19 71.8639 9.46745 70.2123 9.4567L67.8876 9.44519L67.133 13.8706Z" fill="white"/>
<path d="M87.159 14.8128C86.7273 14.7456 86.2924 14.7018 85.8562 14.6815C84.5954 14.6462 83.6334 15.0915 82.97 16.0176L81.4113 25.0021H77.2111L79.6122 10.8274L83.5316 10.8136L83.2126 12.6704C84.111 11.2374 85.1749 10.521 86.4043 10.521C86.8438 10.5335 87.2806 10.5953 87.707 10.7053L87.159 14.8128Z" fill="white"/>
<path d="M94.3352 24.9906C94.2037 24.5767 94.143 24.1426 94.1555 23.7074C93.2107 24.7717 92.0824 25.287 90.7707 25.2532C90.2179 25.2614 89.6691 25.1567 89.1562 24.9451C88.6433 24.7335 88.1766 24.4193 87.7834 24.0207C87.4001 23.6476 87.1017 23.1924 86.9095 22.6875C86.7173 22.1826 86.6361 21.6404 86.6716 21.0996C86.6648 20.394 86.8336 19.6982 87.1622 19.0782C87.4908 18.4582 87.9682 17.9344 88.5493 17.5565C89.7577 16.7318 91.4093 16.3195 93.5041 16.3195L94.9079 16.3448L95.0629 15.5477L95.1123 14.8566C95.0779 14.0626 94.6908 13.6525 93.9511 13.6264C93.0325 13.608 92.4642 14.1286 92.2531 15.1837L88.0462 15.2045C88.0709 14.2978 88.3867 13.4248 88.9446 12.7211C89.5563 11.9821 90.3474 11.4218 91.2378 11.097C92.2257 10.7099 93.2781 10.5259 94.3352 10.5556C95.2909 10.5596 96.2326 10.7906 97.0866 11.2306C97.8398 11.6199 98.4577 12.2376 98.8565 12.9998C99.2567 13.8052 99.4132 14.715 99.3058 15.6122L98.2703 22.2791L98.2074 23.0923C98.1608 23.6541 98.2439 24.2192 98.45 24.7418L98.4365 24.9906H94.3352ZM91.9364 22.1363C92.7944 22.1701 93.5476 21.7815 94.1959 20.9706L94.6182 18.69L93.5311 18.6761C92.9027 18.6788 92.2926 18.8933 91.7949 19.2866C91.5544 19.4786 91.3546 19.7187 91.2074 19.9923C91.0603 20.266 90.969 20.5675 90.9391 20.8785C90.9119 21.032 90.9154 21.1895 90.9494 21.3416C90.9834 21.4937 91.0471 21.6371 91.1368 21.7631C91.2344 21.8826 91.3569 21.9782 91.4953 22.0428C91.6337 22.1074 91.7844 22.1393 91.9364 22.1363Z" fill="white"/>
<path d="M112.65 19.1622L115.421 10.8274H119.534L113.979 24.9998H110.442L109.649 16.6327L106.015 24.9906H102.446L101.68 10.8274H105.626L105.498 19.2636L109.036 10.8274H111.956L112.65 19.1622Z" fill="white"/>
<path d="M123.11 24.9906H118.896L121.288 10.8274H125.511L123.11 24.9906ZM121.668 7.25208C121.653 6.9522 121.705 6.6528 121.818 6.37605C121.932 6.0993 122.104 5.85229 122.324 5.6533C122.773 5.22291 123.369 4.98907 123.983 5.00136C124.58 4.98121 125.164 5.18611 125.623 5.57728C125.838 5.7618 126.01 5.99233 126.129 6.25263C126.247 6.51294 126.308 6.79669 126.308 7.08391C126.325 7.38566 126.275 7.68742 126.162 7.96665C126.05 8.24589 125.877 8.49538 125.657 8.6965C125.2 9.12147 124.6 9.34708 123.983 9.32541C123.394 9.33908 122.82 9.13646 122.364 8.75409C122.145 8.57158 121.969 8.34109 121.849 8.07956C121.728 7.81803 121.666 7.53212 121.668 7.24286V7.25208Z" fill="white"/>
<path d="M132.689 10.8273L130.272 25.4351C130.067 27.1245 129.446 28.4368 128.408 29.3721C127.37 30.3074 126.051 30.7682 124.448 30.7544C123.741 30.7279 123.036 30.6447 122.342 30.5056L122.687 27.1514C123.068 27.2459 123.457 27.2992 123.849 27.3103C125.084 27.3272 125.816 26.6545 126.045 25.2923L128.476 10.8273H132.689ZM128.792 7.23584C128.776 6.93205 128.829 6.6286 128.946 6.34898C129.063 6.06935 129.241 5.82104 129.466 5.62325C129.918 5.20623 130.507 4.98063 131.115 4.99203C131.708 4.96139 132.291 5.16499 132.743 5.56105C132.959 5.74653 133.133 5.97837 133.253 6.24026C133.372 6.50215 133.435 6.78772 133.435 7.07689C133.448 7.37139 133.398 7.66525 133.289 7.93786C133.179 8.21047 133.013 8.45522 132.801 8.65492C132.349 9.07148 131.767 9.30892 131.159 9.32454C130.552 9.34017 129.958 9.13296 129.486 8.74016C129.271 8.55636 129.097 8.32651 128.977 8.06667C128.857 7.80684 128.794 7.52329 128.792 7.23584Z" fill="white"/>
<path d="M140.544 24.9905C140.412 24.5766 140.351 24.1425 140.364 23.7073C139.419 24.7716 138.291 25.2869 136.979 25.2531C136.426 25.2613 135.878 25.1566 135.365 24.945C134.852 24.7334 134.385 24.4192 133.992 24.0206C133.609 23.6475 133.31 23.1923 133.118 22.6874C132.926 22.1825 132.845 21.6403 132.88 21.0995C132.875 20.3935 133.046 19.6979 133.376 19.0781C133.705 18.4583 134.183 17.9346 134.765 17.5564C135.962 16.7317 137.61 16.3194 139.706 16.3194L141.11 16.3447L141.265 15.5476L141.314 14.8565C141.29 14.0594 140.904 13.6478 140.155 13.6217C139.236 13.6033 138.668 14.1239 138.457 15.179L134.246 15.2044C134.27 14.2977 134.586 13.4247 135.144 12.721C135.757 11.9828 136.547 11.4227 137.437 11.0969C138.422 10.7155 139.469 10.5355 140.521 10.567C141.477 10.571 142.419 10.802 143.273 11.242C144.026 11.6313 144.644 12.249 145.043 13.0112C145.443 13.8167 145.599 14.7264 145.492 15.6236L144.456 22.2906L144.393 23.1038C144.352 23.6626 144.439 24.2236 144.647 24.7417L144.634 24.9905H140.544ZM138.134 22.1362C138.992 22.17 139.745 21.7814 140.393 20.9705L140.815 18.6899L139.728 18.676C139.1 18.6787 138.49 18.8932 137.992 19.2865C137.752 19.4785 137.552 19.7186 137.405 19.9922C137.258 20.2659 137.166 20.5674 137.136 20.8784C137.11 21.0319 137.114 21.1892 137.148 21.3411C137.182 21.4931 137.245 21.6365 137.334 21.763C137.432 21.8825 137.554 21.9781 137.693 22.0427C137.831 22.1073 137.982 22.1392 138.134 22.1362Z" fill="white"/>
<path d="M152.509 18.7567L156.073 10.8274H160.709L152.623 27.1215C152.024 28.407 151.328 29.3354 150.534 29.9067C149.708 30.4904 148.723 30.7904 147.72 30.7637C147.093 30.7425 146.471 30.6458 145.867 30.4757L146.186 27.3196H146.669C147.137 27.3293 147.602 27.2424 148.037 27.0639C148.464 26.8581 148.811 26.5086 149.018 26.0733L149.611 24.88L147.401 10.8274H151.743L152.509 18.7567Z" fill="white"/>
<path d="M167.018 24.9905C166.888 24.5763 166.827 24.1424 166.839 23.7073C166.424 24.2094 165.904 24.609 165.318 24.8767C164.732 25.1443 164.095 25.273 163.454 25.2531C162.901 25.2613 162.352 25.1566 161.839 24.945C161.326 24.7334 160.86 24.4192 160.466 24.0206C160.083 23.6475 159.785 23.1923 159.593 22.6874C159.4 22.1825 159.319 21.6403 159.355 21.0995C159.349 20.3942 159.519 19.699 159.847 19.0792C160.176 18.4595 160.652 17.9355 161.232 17.5564C162.441 16.7317 164.092 16.3194 166.187 16.3194L167.593 16.3447L167.746 15.5476L167.798 14.8565C167.762 14.0617 167.375 13.6517 166.634 13.6263C165.715 13.6079 165.149 14.127 164.936 15.1836L160.722 15.2044C160.747 14.2977 161.063 13.4246 161.621 12.721C162.233 11.9828 163.024 11.4227 163.914 11.0969C164.899 10.7155 165.946 10.5355 166.998 10.567C167.954 10.5712 168.897 10.8022 169.752 11.242C170.504 11.6313 171.121 12.2491 171.519 13.0112C171.921 13.8163 172.077 14.7263 171.969 15.6236L170.933 22.2906L170.87 23.1038C170.824 23.6655 170.907 24.2306 171.113 24.7532L171.099 25.002L167.018 24.9905ZM164.617 22.1362C165.478 22.17 166.231 21.7814 166.877 20.9705L167.299 18.6899L166.21 18.676C165.58 18.6783 164.97 18.8928 164.471 19.2865C164.231 19.4785 164.031 19.7186 163.884 19.9922C163.737 20.2659 163.645 20.5674 163.615 20.8784C163.589 21.032 163.592 21.1897 163.627 21.3418C163.661 21.4938 163.725 21.6371 163.815 21.763C163.913 21.8831 164.036 21.979 164.175 22.0436C164.313 22.1083 164.465 22.1399 164.617 22.1362Z" fill="white"/>
<path d="M60.8889 24.9906L64.1075 5.91821L70.0192 5.93203C72.3521 5.94125 74.0936 6.39508 75.2435 7.29352C76.3935 8.19197 76.9176 9.4544 76.8158 11.0808C76.687 13.0896 75.6141 14.5126 73.5972 15.3496C74.3088 15.6012 74.9094 16.1053 75.2907 16.771C75.7091 17.519 75.8897 18.3823 75.8073 19.2405C75.689 21.0835 74.98 22.5026 73.6803 23.4978C72.3805 24.493 70.6039 24.9906 68.3503 24.9906H60.8889ZM66.6366 16.8838L65.8572 21.4406L68.4739 21.4544C69.2028 21.4818 69.9205 21.2642 70.5178 20.8347C70.781 20.6415 71.0029 20.3951 71.1698 20.1106C71.3366 19.8261 71.445 19.5097 71.4881 19.1806C71.7262 17.7262 71.1811 16.9645 69.853 16.8954L66.6366 16.8838ZM67.133 13.8706H69.1904C71.089 13.8276 72.1529 13.0789 72.382 11.6245C72.5872 10.19 71.8639 9.46745 70.2123 9.4567L67.8876 9.44519L67.133 13.8706Z" fill="white"/>
<path d="M87.159 14.8128C86.7273 14.7456 86.2924 14.7018 85.8562 14.6815C84.5954 14.6462 83.6334 15.0915 82.97 16.0176L81.4113 25.0021H77.2111L79.6122 10.8274L83.5316 10.8136L83.2126 12.6704C84.111 11.2374 85.1749 10.521 86.4043 10.521C86.8438 10.5335 87.2806 10.5953 87.707 10.7053L87.159 14.8128Z" fill="white"/>
<path d="M94.3352 24.9906C94.2037 24.5767 94.143 24.1426 94.1555 23.7074C93.2107 24.7717 92.0824 25.287 90.7707 25.2532C90.2179 25.2614 89.6691 25.1567 89.1562 24.9451C88.6433 24.7335 88.1766 24.4193 87.7834 24.0207C87.4001 23.6476 87.1017 23.1924 86.9095 22.6875C86.7173 22.1826 86.6361 21.6404 86.6716 21.0996C86.6648 20.394 86.8336 19.6982 87.1622 19.0782C87.4908 18.4582 87.9682 17.9344 88.5493 17.5565C89.7577 16.7318 91.4093 16.3195 93.5041 16.3195L94.9079 16.3448L95.0629 15.5477L95.1123 14.8566C95.0779 14.0626 94.6908 13.6525 93.9511 13.6264C93.0325 13.608 92.4642 14.1286 92.2531 15.1837L88.0462 15.2045C88.0709 14.2978 88.3867 13.4248 88.9446 12.7211C89.5563 11.9821 90.3474 11.4218 91.2378 11.097C92.2257 10.7099 93.2781 10.5259 94.3352 10.5556C95.2909 10.5596 96.2326 10.7906 97.0866 11.2306C97.8398 11.6199 98.4577 12.2376 98.8565 12.9998C99.2567 13.8052 99.4132 14.715 99.3058 15.6122L98.2703 22.2791L98.2074 23.0923C98.1608 23.6541 98.2439 24.2192 98.45 24.7418L98.4365 24.9906H94.3352ZM91.9364 22.1363C92.7944 22.1701 93.5476 21.7815 94.1959 20.9706L94.6182 18.69L93.5311 18.6761C92.9027 18.6788 92.2926 18.8933 91.7949 19.2866C91.5544 19.4786 91.3546 19.7187 91.2074 19.9923C91.0603 20.266 90.969 20.5675 90.9391 20.8785C90.9119 21.032 90.9154 21.1895 90.9494 21.3416C90.9834 21.4937 91.0471 21.6371 91.1368 21.7631C91.2344 21.8826 91.3569 21.9782 91.4953 22.0428C91.6337 22.1074 91.7844 22.1393 91.9364 22.1363Z" fill="white"/>
<path d="M112.65 19.1622L115.421 10.8274H119.534L113.979 24.9998H110.442L109.649 16.6327L106.015 24.9906H102.446L101.68 10.8274H105.626L105.498 19.2636L109.036 10.8274H111.956L112.65 19.1622Z" fill="white"/>
<path d="M123.11 24.9906H118.896L121.288 10.8274H125.511L123.11 24.9906ZM121.668 7.25208C121.653 6.9522 121.705 6.6528 121.818 6.37605C121.932 6.0993 122.104 5.85229 122.324 5.6533C122.773 5.22291 123.369 4.98907 123.983 5.00136C124.58 4.98121 125.164 5.18611 125.623 5.57728C125.838 5.7618 126.01 5.99233 126.129 6.25263C126.247 6.51294 126.308 6.79669 126.308 7.08391C126.325 7.38566 126.275 7.68742 126.162 7.96665C126.05 8.24589 125.877 8.49538 125.657 8.6965C125.2 9.12147 124.6 9.34708 123.983 9.32541C123.394 9.33908 122.82 9.13646 122.364 8.75409C122.145 8.57158 121.969 8.34109 121.849 8.07956C121.728 7.81803 121.666 7.53212 121.668 7.24286V7.25208Z" fill="white"/>
<path d="M132.689 10.8273L130.272 25.4351C130.067 27.1245 129.446 28.4368 128.408 29.3721C127.37 30.3074 126.051 30.7682 124.448 30.7544C123.741 30.7279 123.036 30.6447 122.342 30.5056L122.687 27.1514C123.068 27.2459 123.457 27.2992 123.849 27.3103C125.084 27.3272 125.816 26.6545 126.045 25.2923L128.476 10.8273H132.689ZM128.792 7.23584C128.776 6.93205 128.829 6.6286 128.946 6.34898C129.063 6.06935 129.241 5.82104 129.466 5.62325C129.918 5.20623 130.507 4.98063 131.115 4.99203C131.708 4.96139 132.291 5.16499 132.743 5.56105C132.959 5.74653 133.133 5.97837 133.253 6.24026C133.372 6.50215 133.435 6.78772 133.435 7.07689C133.448 7.37139 133.398 7.66525 133.289 7.93786C133.179 8.21047 133.013 8.45522 132.801 8.65492C132.349 9.07148 131.767 9.30892 131.159 9.32454C130.552 9.34017 129.958 9.13296 129.486 8.74016C129.271 8.55636 129.097 8.32651 128.977 8.06667C128.857 7.80684 128.794 7.52329 128.792 7.23584Z" fill="white"/>
<path d="M140.544 24.9905C140.412 24.5766 140.351 24.1425 140.364 23.7073C139.419 24.7716 138.291 25.2869 136.979 25.2531C136.426 25.2613 135.878 25.1566 135.365 24.945C134.852 24.7334 134.385 24.4192 133.992 24.0206C133.609 23.6475 133.31 23.1923 133.118 22.6874C132.926 22.1825 132.845 21.6403 132.88 21.0995C132.875 20.3935 133.046 19.6979 133.376 19.0781C133.705 18.4583 134.183 17.9346 134.765 17.5564C135.962 16.7317 137.61 16.3194 139.706 16.3194L141.11 16.3447L141.265 15.5476L141.314 14.8565C141.29 14.0594 140.904 13.6478 140.155 13.6217C139.236 13.6033 138.668 14.1239 138.457 15.179L134.246 15.2044C134.27 14.2977 134.586 13.4247 135.144 12.721C135.757 11.9828 136.547 11.4227 137.437 11.0969C138.422 10.7155 139.469 10.5355 140.521 10.567C141.477 10.571 142.419 10.802 143.273 11.242C144.026 11.6313 144.644 12.249 145.043 13.0112C145.443 13.8167 145.599 14.7264 145.492 15.6236L144.456 22.2906L144.393 23.1038C144.352 23.6626 144.439 24.2236 144.647 24.7417L144.634 24.9905H140.544ZM138.134 22.1362C138.992 22.17 139.745 21.7814 140.393 20.9705L140.815 18.6899L139.728 18.676C139.1 18.6787 138.49 18.8932 137.992 19.2865C137.752 19.4785 137.552 19.7186 137.405 19.9922C137.258 20.2659 137.166 20.5674 137.136 20.8784C137.11 21.0319 137.114 21.1892 137.148 21.3411C137.182 21.4931 137.245 21.6365 137.334 21.763C137.432 21.8825 137.554 21.9781 137.693 22.0427C137.831 22.1073 137.982 22.1392 138.134 22.1362Z" fill="white"/>
<path d="M152.509 18.7567L156.073 10.8274H160.709L152.623 27.1215C152.024 28.407 151.328 29.3354 150.534 29.9067C149.708 30.4904 148.723 30.7904 147.72 30.7637C147.093 30.7425 146.471 30.6458 145.867 30.4757L146.186 27.3196H146.669C147.137 27.3293 147.602 27.2424 148.037 27.0639C148.464 26.8581 148.811 26.5086 149.018 26.0733L149.611 24.88L147.401 10.8274H151.743L152.509 18.7567Z" fill="white"/>
<path d="M167.018 24.9905C166.888 24.5763 166.827 24.1424 166.839 23.7073C166.424 24.2094 165.904 24.609 165.318 24.8767C164.732 25.1443 164.095 25.273 163.454 25.2531C162.901 25.2613 162.352 25.1566 161.839 24.945C161.326 24.7334 160.86 24.4192 160.466 24.0206C160.083 23.6475 159.785 23.1923 159.593 22.6874C159.4 22.1825 159.319 21.6403 159.355 21.0995C159.349 20.3942 159.519 19.699 159.847 19.0792C160.176 18.4595 160.652 17.9355 161.232 17.5564C162.441 16.7317 164.092 16.3194 166.187 16.3194L167.593 16.3447L167.746 15.5476L167.798 14.8565C167.762 14.0617 167.375 13.6517 166.634 13.6263C165.715 13.6079 165.149 14.127 164.936 15.1836L160.722 15.2044C160.747 14.2977 161.063 13.4246 161.621 12.721C162.233 11.9828 163.024 11.4227 163.914 11.0969C164.899 10.7155 165.946 10.5355 166.998 10.567C167.954 10.5712 168.897 10.8022 169.752 11.242C170.504 11.6313 171.121 12.2491 171.519 13.0112C171.921 13.8163 172.077 14.7263 171.969 15.6236L170.933 22.2906L170.87 23.1038C170.824 23.6655 170.907 24.2306 171.113 24.7532L171.099 25.002L167.018 24.9905ZM164.617 22.1362C165.478 22.17 166.231 21.7814 166.877 20.9705L167.299 18.6899L166.21 18.676C165.58 18.6783 164.97 18.8928 164.471 19.2865C164.231 19.4785 164.031 19.7186 163.884 19.9922C163.737 20.2659 163.645 20.5674 163.615 20.8784C163.589 21.032 163.592 21.1897 163.627 21.3418C163.661 21.4938 163.725 21.6371 163.815 21.763C163.913 21.8831 164.036 21.979 164.175 22.0436C164.313 22.1083 164.465 22.1399 164.617 22.1362Z" fill="white"/>
<path d="M59.658 48.0437H68.2156L67.8584 50.1009H56.8998L60.1297 31.0286H62.5442L59.658 48.0437Z" fill="white"/>
<path d="M76.2992 50.3637C74.5787 50.3283 73.2311 49.6779 72.2563 48.4124C71.2815 47.1469 70.8727 45.5266 71.0299 43.5516L71.095 42.9895C71.2264 41.6292 71.6457 40.3146 72.3236 39.1377C72.9088 38.0639 73.7505 37.1602 74.7696 36.5115C75.7074 35.9287 76.7889 35.6352 77.8849 35.666C79.3074 35.7013 80.423 36.1859 81.2316 37.1197C82.0402 38.0534 82.4826 39.3197 82.559 40.9185C82.5852 41.4864 82.5687 42.0556 82.5096 42.6209L82.3681 43.7083H73.3389C73.1891 44.9937 73.3958 46.0857 73.9588 46.9841C74.5218 47.8826 75.3656 48.3471 76.4901 48.3779C77.8527 48.4117 79.1128 47.7827 80.2703 46.4911L81.5999 47.643C81.0245 48.4931 80.2528 49.184 79.3539 49.6541C78.4089 50.1471 77.3591 50.391 76.2992 50.3637ZM77.7681 37.6449C77.3076 37.6267 76.8483 37.7057 76.4187 37.8769C75.9891 38.0481 75.5983 38.3078 75.2705 38.6401C74.5607 39.3297 73.997 40.3556 73.5792 41.7179L80.2972 41.7317L80.3489 41.522C80.4836 40.4209 80.3107 39.5063 79.83 38.7783C79.6072 38.4266 79.3014 38.1383 78.9409 37.9401C78.5805 37.742 78.1771 37.6404 77.7681 37.6449Z" fill="white"/>
<path d="M92.1191 50.4501C92.06 50.2059 92.0298 49.9553 92.0293 49.7037L92.0675 48.9573C90.7992 50.1613 89.4515 50.7465 88.0245 50.7127C86.8072 50.6943 85.8174 50.2988 85.0552 49.5263C84.6818 49.1531 84.3946 48.6989 84.2146 48.197C84.0347 47.6952 83.9666 47.1583 84.0153 46.6259C84.0362 45.9242 84.2219 45.238 84.5566 44.6256C84.8913 44.0131 85.3652 43.4926 85.9379 43.1082C87.1358 42.265 88.7081 41.8434 90.6547 41.8434L93.067 41.8573L93.2197 40.7307C93.305 39.883 93.1456 39.2149 92.7413 38.7196C92.337 38.2243 91.7305 37.9709 90.922 37.9548C90.1785 37.9225 89.444 38.1304 88.8219 38.5491C88.5353 38.7304 88.2878 38.9698 88.0947 39.2526C87.9016 39.5355 87.7669 39.8558 87.6988 40.194L85.3742 40.2078C85.4466 39.3862 85.7786 38.6112 86.3197 38.0009C86.905 37.3356 87.6365 36.8231 88.4535 36.5058C89.3102 36.1551 90.2266 35.9836 91.1488 36.0012C92.5878 36.0381 93.7108 36.4858 94.5179 37.3443C95.325 38.2028 95.6612 39.3447 95.5264 40.7699L94.4034 47.7916L94.3382 48.8006C94.3218 49.281 94.3733 49.7613 94.491 50.2266L94.4663 50.457L92.1191 50.4501ZM88.4917 48.6071C89.2271 48.6265 89.9535 48.4384 90.5918 48.0634C91.2656 47.6714 91.8474 47.1328 92.2966 46.4854L92.7952 43.5643L91.0455 43.5505C89.59 43.5505 88.4745 43.7862 87.6988 44.2577C87.3383 44.4581 87.0304 44.745 86.8015 45.0941C86.5727 45.4431 86.4297 45.8439 86.3849 46.2619C86.3368 46.5553 86.3521 46.8559 86.4298 47.1425C86.5074 47.4291 86.6454 47.6947 86.8341 47.9206C87.2159 48.3698 87.7685 48.6002 88.4984 48.6163L88.4917 48.6071Z" fill="white"/>
<path d="M98.4949 42.9894C98.6606 41.5803 99.0779 40.2144 99.7258 38.9602C100.235 37.9285 101.003 37.054 101.949 36.4262C102.81 35.8842 103.806 35.6126 104.815 35.6452C106.416 35.6821 107.625 36.3025 108.443 37.5066L108.903 35.9216H111.024L108.71 49.7992C108.463 51.6083 107.748 53.0558 106.565 54.1416C105.382 55.2275 103.926 55.745 102.196 55.6943C101.259 55.6754 100.337 55.4391 99.5012 55.0032C98.6833 54.6008 97.9853 53.9811 97.4797 53.2086L98.7936 51.755C99.6292 53.022 100.732 53.6725 102.102 53.7062C103.114 53.7738 104.113 53.4398 104.892 52.7732C105.652 52.1098 106.157 51.1668 106.406 49.9443L106.662 48.6865C106.156 49.2349 105.543 49.6678 104.863 49.9568C104.183 50.2458 103.451 50.3844 102.715 50.3636C101.914 50.357 101.133 50.1086 100.469 49.6494C99.8037 49.1591 99.2911 48.4813 98.9935 47.6982C98.6336 46.7923 98.4387 45.8265 98.4185 44.8485C98.4065 44.2278 98.432 43.6069 98.4949 42.9894ZM100.741 44.3302C100.716 45.5772 100.927 46.5433 101.374 47.2282C101.822 47.9132 102.496 48.2726 103.396 48.3064C104.775 48.3417 105.963 47.6506 106.96 46.233L108.036 39.7251C107.524 38.435 106.6 37.7631 105.265 37.7093C104.013 37.674 102.985 38.1977 102.181 39.2804C101.377 40.3632 100.902 41.8222 100.757 43.6575L100.741 44.3302Z" fill="white"/>
<path d="M120.96 48.7002C119.881 49.8428 118.506 50.3973 116.836 50.3635C115.516 50.3282 114.542 49.8436 113.916 48.9098C113.291 47.9761 113.052 46.7006 113.202 45.0834L114.685 35.9285H116.996L115.5 45.1226C115.459 45.4966 115.451 45.8735 115.475 46.2491C115.486 46.7933 115.68 47.317 116.026 47.7303C116.201 47.9142 116.411 48.0599 116.642 48.1589C116.874 48.2578 117.122 48.308 117.373 48.3063C118.135 48.3585 118.895 48.1941 119.572 47.8311C120.248 47.4681 120.813 46.9206 121.205 46.2491L122.941 35.9285H125.255L122.86 50.1009H120.675L120.96 48.7002Z" fill="white"/>
<path d="M132.276 50.3636C130.555 50.3283 129.208 49.6778 128.233 48.4123C127.258 47.1468 126.849 45.5266 127.007 43.5515L127.072 42.9894C127.2 41.6298 127.617 40.3153 128.291 39.1376C128.877 38.0638 129.718 37.1601 130.737 36.5114C131.679 35.9258 132.765 35.6322 133.866 35.6659C135.287 35.7013 136.403 36.1858 137.213 37.1196C138.023 38.0534 138.465 39.3196 138.54 40.9184C138.567 41.4864 138.55 42.0556 138.489 42.6208L138.349 43.7082H129.32C129.17 44.9936 129.377 46.0856 129.94 46.984C130.503 47.8825 131.345 48.3471 132.467 48.3778C133.831 48.4116 135.091 47.7827 136.247 46.4911L137.577 47.6429C137.001 48.4931 136.23 49.184 135.331 49.654C134.386 50.1471 133.336 50.3909 132.276 50.3636ZM133.745 37.6448C133.284 37.6267 132.825 37.7056 132.395 37.8768C131.966 38.048 131.575 38.3077 131.247 38.64C130.537 39.3296 129.974 40.3555 129.556 41.7178L136.274 41.7316L136.323 41.522C136.46 40.4208 136.287 39.5062 135.807 38.7783C135.584 38.4265 135.278 38.1382 134.918 37.9401C134.557 37.7419 134.154 37.6404 133.745 37.6448Z" fill="white"/>
</g>
<defs>
<clipPath id="clip0_286_925">
<rect width="172" height="60" fill="white"/>
</clipPath>
</defs>
</svg>
