<svg width="636" height="217" viewBox="0 0 636 217" fill="none" xmlns="http://www.w3.org/2000/svg">
<g clip-path="url(#clip0_359_2216)">
<path d="M94.9291 97.6896L0 41.5587L78.6508 0L166.878 88.458L39.1178 217H0.6312C0.6312 217 32.0417 176.399 47.6971 156.795C63.3525 137.19 94.9291 97.6896 94.9291 97.6896Z" fill="white"/>
<path d="M139.877 216.85C157.537 216.85 171.852 202.489 171.852 184.773C171.852 167.057 157.537 152.696 139.877 152.696C122.218 152.696 107.902 167.057 107.902 184.773C107.902 202.489 122.218 216.85 139.877 216.85Z" fill="white"/>
<path d="M225.147 90.3826L237.049 21.4042L258.908 21.4542C267.534 21.4875 273.974 23.1288 278.226 26.3782C282.478 29.6276 284.416 34.1934 284.04 40.0756C283.564 47.3409 279.597 52.4871 272.138 55.5143C274.77 56.4244 276.991 58.2475 278.401 60.655C279.948 63.3605 280.615 66.4825 280.311 69.5866C279.873 76.252 277.252 81.3843 272.446 84.9836C267.64 88.5829 261.07 90.3826 252.737 90.3826H225.147ZM246.4 61.0632L243.518 77.5434L253.194 77.5934C255.889 77.6925 258.543 76.9055 260.752 75.3522C261.725 74.6534 262.546 73.7621 263.163 72.7333C263.78 71.7045 264.18 70.5599 264.34 69.37C265.22 64.1099 263.205 61.3548 258.294 61.1049L246.4 61.0632ZM248.236 50.1653H255.843C262.864 50.0098 266.798 47.302 267.645 42.0419C268.404 36.854 265.729 34.2406 259.622 34.2017L251.026 34.1601L248.236 50.1653Z" fill="white"/>
<path d="M322.285 53.573C320.689 53.3301 319.081 53.1716 317.468 53.0981C312.806 52.9704 309.249 54.5812 306.796 57.9305L301.032 90.4243H285.501L294.38 39.1591L308.872 39.1092L307.693 45.8245C311.015 40.6422 314.949 38.051 319.495 38.051C321.12 38.0963 322.735 38.3198 324.312 38.7176L322.285 53.573Z" fill="white"/>
<path d="M348.821 90.3826C348.335 88.8856 348.11 87.3156 348.156 85.7418C344.663 89.5911 340.491 91.4546 335.64 91.3324C333.596 91.3622 331.567 90.9834 329.67 90.2181C327.774 89.4528 326.048 88.3163 324.594 86.875C323.177 85.5256 322.074 83.8792 321.363 82.0531C320.652 80.227 320.352 78.2662 320.483 76.3103C320.458 73.7582 321.082 71.2418 322.297 68.9995C323.512 66.7571 325.278 64.8629 327.426 63.4961C331.895 60.5134 338.002 59.022 345.748 59.022L350.939 59.1136L351.512 56.2308L351.694 53.7313C351.567 50.8596 350.136 49.3766 347.401 49.2822C344.004 49.2155 341.902 51.0985 341.122 54.9144L325.566 54.9894C325.657 51.7103 326.825 48.5531 328.888 46.0078C331.15 43.3351 334.075 41.3089 337.368 40.1339C341.02 38.734 344.912 38.0687 348.821 38.176C352.355 38.1904 355.837 39.0259 358.995 40.6172C361.78 42.0252 364.065 44.2593 365.539 47.0159C367.019 49.9289 367.597 53.219 367.2 56.4641L363.372 80.5762L363.139 83.5173C362.967 85.5489 363.274 87.5926 364.036 89.4828L363.986 90.3826H348.821ZM339.951 80.0596C343.123 80.1818 345.908 78.7765 348.306 75.8437L349.867 67.5953L345.847 67.5453C343.524 67.5548 341.268 68.3306 339.428 69.7532C338.538 70.4474 337.799 71.3158 337.255 72.3055C336.711 73.2953 336.374 74.3857 336.263 75.5105C336.163 76.0656 336.176 76.6355 336.301 77.1854C336.427 77.7354 336.663 78.254 336.994 78.7099C337.355 79.1421 337.808 79.4878 338.32 79.7213C338.831 79.9549 339.389 80.0705 339.951 80.0596Z" fill="white"/>
<path d="M416.542 69.3034L426.791 39.1592H441.997L421.459 90.416H408.378L405.446 60.1551L392.008 90.3827H378.811L375.979 39.1592H390.571L390.098 69.67L403.179 39.1592H413.976L416.542 69.3034Z" fill="white"/>
<path d="M455.219 90.3826H439.639L448.484 39.1591H464.098L455.219 90.3826ZM449.888 26.2283C449.834 25.1437 450.024 24.0609 450.443 23.06C450.863 22.0591 451.502 21.1657 452.313 20.446C453.975 18.8895 456.177 18.0437 458.45 18.0882C460.657 18.0153 462.814 18.7563 464.513 20.1711C465.307 20.8384 465.945 21.6722 466.382 22.6136C466.82 23.555 467.047 24.5813 467.046 25.62C467.108 26.7114 466.924 27.8028 466.507 28.8126C466.09 29.8225 465.451 30.7249 464.638 31.4523C462.949 32.9892 460.729 33.8052 458.45 33.7268C456.272 33.7763 454.149 33.0434 452.462 31.6605C451.653 31.0005 451.002 30.1669 450.556 29.221C450.111 28.2751 449.882 27.2411 449.888 26.1949V26.2283Z" fill="white"/>
<path d="M490.641 39.1591L481.705 91.9907C480.946 98.1006 478.649 102.847 474.812 106.23C470.975 109.612 466.094 111.279 460.169 111.229C457.553 111.133 454.948 110.832 452.379 110.329L453.658 98.1978C455.065 98.5397 456.504 98.7324 457.952 98.7727C462.52 98.8338 465.227 96.4009 466.074 91.4741L475.061 39.1591H490.641ZM476.232 26.17C476.173 25.0713 476.368 23.9738 476.8 22.9625C477.232 21.9512 477.89 21.0531 478.723 20.3378C480.394 18.8296 482.572 18.0136 484.819 18.0549C487.015 17.944 489.169 18.6804 490.841 20.1128C491.64 20.7836 492.284 21.6221 492.726 22.5693C493.168 23.5165 493.397 24.5493 493.399 25.5951C493.447 26.6602 493.262 27.723 492.858 28.7089C492.453 29.6949 491.838 30.58 491.057 31.3023C489.384 32.8089 487.231 33.6676 484.984 33.7241C482.737 33.7806 480.544 33.0312 478.798 31.6106C478.001 30.9458 477.359 30.1145 476.916 29.1748C476.472 28.2351 476.239 27.2096 476.232 26.17Z" fill="white"/>
<path d="M519.685 90.3827C519.199 88.8856 518.974 87.3157 519.02 85.7419C515.527 89.5912 511.355 91.4547 506.504 91.3325C504.46 91.3623 502.431 90.9834 500.535 90.2181C498.638 89.4528 496.912 88.3164 495.458 86.875C494.041 85.5256 492.938 83.8792 492.227 82.0532C491.516 80.2271 491.216 78.2663 491.347 76.3104C491.33 73.7569 491.961 71.2411 493.18 68.9995C494.399 66.7578 496.166 64.864 498.315 63.4962C502.745 60.5134 508.835 59.022 516.587 59.022L521.778 59.1137L522.351 56.2309L522.533 53.7314C522.445 50.8486 521.016 49.36 518.248 49.2656C514.851 49.1989 512.75 51.0819 511.969 54.8978L496.397 54.9895C496.488 51.7103 497.656 48.5532 499.719 46.0079C501.983 43.3381 504.908 41.3125 508.199 40.134C511.839 38.7547 515.712 38.1037 519.602 38.2177C523.136 38.2321 526.618 39.0677 529.776 40.6589C532.561 42.0669 534.846 44.3011 536.32 47.0577C537.8 49.9707 538.378 53.2608 537.981 56.5059L534.153 80.6179L533.92 83.559C533.767 85.5801 534.089 87.6089 534.859 89.4829L534.809 90.3827H519.685ZM510.773 80.0597C513.946 80.1819 516.731 78.7766 519.128 75.8438L520.69 67.5954L516.67 67.5454C514.346 67.5549 512.091 68.3307 510.25 69.7533C509.361 70.4475 508.622 71.3158 508.078 72.3056C507.534 73.2953 507.196 74.3858 507.086 75.5105C506.989 76.0658 507.004 76.6348 507.129 77.1842C507.255 77.7336 507.489 78.2523 507.817 78.7099C508.178 79.1422 508.631 79.4878 509.142 79.7214C509.654 79.955 510.211 80.0706 510.773 80.0597Z" fill="white"/>
<path d="M563.927 67.837L577.107 39.1592H594.249L564.351 98.0895C562.136 102.739 559.561 106.096 556.627 108.163C553.572 110.274 549.928 111.359 546.22 111.262C543.903 111.185 541.604 110.836 539.368 110.221L540.548 98.8061H542.333C544.064 98.8412 545.784 98.5267 547.391 97.8812C548.973 97.1367 550.253 95.8728 551.021 94.2986L553.213 89.9828L545.041 39.1592H561.095L563.927 67.837Z" fill="white"/>
<path d="M617.579 90.3827C617.097 88.8847 616.872 87.3154 616.914 85.7419C615.381 87.5575 613.46 89.0031 611.293 89.971C609.126 90.9389 606.769 91.4043 604.398 91.3325C602.354 91.3623 600.325 90.9834 598.429 90.2181C596.532 89.4528 594.807 88.3164 593.352 86.875C591.935 85.5256 590.832 83.8792 590.121 82.0532C589.411 80.2271 589.11 78.2663 589.241 76.3104C589.222 73.7593 589.848 71.245 591.063 69.0035C592.277 66.7621 594.04 64.867 596.185 63.4962C600.653 60.5134 606.76 59.022 614.506 59.022L619.705 59.1137L620.27 56.2309L620.461 53.7314C620.328 50.8569 618.899 49.3739 616.159 49.2823C612.759 49.2156 610.666 51.093 609.88 54.9145L594.299 54.9895C594.39 51.7102 595.558 48.5528 597.621 46.0079C599.886 43.3381 602.81 41.3125 606.101 40.134C609.741 38.7547 613.615 38.1037 617.504 38.2177C621.04 38.2329 624.525 39.0684 627.686 40.6589C630.469 42.067 632.751 44.3013 634.223 47.0577C635.706 49.9694 636.285 53.2607 635.884 56.5059L632.055 80.6179L631.822 83.559C631.65 85.5906 631.957 87.6344 632.719 89.5245L632.67 90.4243L617.579 90.3827ZM608.701 80.0597C611.884 80.1819 614.669 78.7766 617.056 75.8438L618.617 67.5954L614.589 67.5454C612.263 67.5536 610.004 68.3295 608.161 69.7533C607.272 70.4475 606.533 71.3158 605.989 72.3056C605.445 73.2953 605.107 74.3858 604.996 75.5105C604.897 76.0662 604.911 76.6364 605.038 77.1864C605.166 77.7364 605.403 78.2547 605.736 78.7099C606.097 79.1443 606.551 79.4912 607.064 79.7249C607.578 79.9586 608.137 80.073 608.701 80.0597Z" fill="white"/>
<path d="M225.147 90.3826L237.049 21.4042L258.908 21.4542C267.534 21.4875 273.974 23.1288 278.226 26.3782C282.478 29.6276 284.416 34.1934 284.04 40.0756C283.564 47.3409 279.597 52.4871 272.138 55.5143C274.77 56.4244 276.991 58.2475 278.401 60.655C279.948 63.3605 280.615 66.4825 280.311 69.5866C279.873 76.252 277.252 81.3843 272.446 84.9836C267.64 88.5829 261.07 90.3826 252.737 90.3826H225.147ZM246.4 61.0632L243.518 77.5434L253.194 77.5934C255.889 77.6925 258.543 76.9055 260.752 75.3522C261.725 74.6534 262.546 73.7621 263.163 72.7333C263.78 71.7045 264.18 70.5599 264.34 69.37C265.22 64.1099 263.205 61.3548 258.294 61.1049L246.4 61.0632ZM248.236 50.1653H255.843C262.864 50.0098 266.798 47.302 267.645 42.0419C268.404 36.854 265.729 34.2406 259.622 34.2017L251.026 34.1601L248.236 50.1653Z" fill="white"/>
<path d="M322.285 53.573C320.689 53.3301 319.081 53.1716 317.468 53.0981C312.806 52.9704 309.249 54.5812 306.796 57.9305L301.032 90.4243H285.501L294.38 39.1591L308.872 39.1092L307.693 45.8245C311.015 40.6422 314.949 38.051 319.495 38.051C321.12 38.0963 322.735 38.3198 324.312 38.7176L322.285 53.573Z" fill="white"/>
<path d="M348.821 90.3826C348.335 88.8856 348.11 87.3156 348.156 85.7418C344.663 89.5911 340.491 91.4546 335.64 91.3324C333.596 91.3622 331.567 90.9834 329.67 90.2181C327.774 89.4528 326.048 88.3163 324.594 86.875C323.177 85.5256 322.074 83.8792 321.363 82.0531C320.652 80.227 320.352 78.2662 320.483 76.3103C320.458 73.7582 321.082 71.2418 322.297 68.9995C323.512 66.7571 325.278 64.8629 327.426 63.4961C331.895 60.5134 338.002 59.022 345.748 59.022L350.939 59.1136L351.512 56.2308L351.694 53.7313C351.567 50.8596 350.136 49.3766 347.401 49.2822C344.004 49.2155 341.902 51.0985 341.122 54.9144L325.566 54.9894C325.657 51.7103 326.825 48.5531 328.888 46.0078C331.15 43.3351 334.075 41.3089 337.368 40.1339C341.02 38.734 344.912 38.0687 348.821 38.176C352.355 38.1904 355.837 39.0259 358.995 40.6172C361.78 42.0252 364.065 44.2593 365.539 47.0159C367.019 49.9289 367.597 53.219 367.2 56.4641L363.372 80.5762L363.139 83.5173C362.967 85.5489 363.274 87.5926 364.036 89.4828L363.986 90.3826H348.821ZM339.951 80.0596C343.123 80.1818 345.908 78.7765 348.306 75.8437L349.867 67.5953L345.847 67.5453C343.524 67.5548 341.268 68.3306 339.428 69.7532C338.538 70.4474 337.799 71.3158 337.255 72.3055C336.711 73.2953 336.374 74.3857 336.263 75.5105C336.163 76.0656 336.176 76.6355 336.301 77.1854C336.427 77.7354 336.663 78.254 336.994 78.7099C337.355 79.1421 337.808 79.4878 338.32 79.7213C338.831 79.9549 339.389 80.0705 339.951 80.0596Z" fill="white"/>
<path d="M416.542 69.3034L426.791 39.1592H441.997L421.459 90.416H408.378L405.446 60.1551L392.008 90.3827H378.811L375.979 39.1592H390.571L390.098 69.67L403.179 39.1592H413.976L416.542 69.3034Z" fill="white"/>
<path d="M455.219 90.3826H439.639L448.484 39.1591H464.098L455.219 90.3826ZM449.888 26.2283C449.834 25.1437 450.024 24.0609 450.443 23.06C450.863 22.0591 451.502 21.1657 452.313 20.446C453.975 18.8895 456.177 18.0437 458.45 18.0882C460.657 18.0153 462.814 18.7563 464.513 20.1711C465.307 20.8384 465.945 21.6722 466.382 22.6136C466.82 23.555 467.047 24.5813 467.046 25.62C467.108 26.7114 466.924 27.8028 466.507 28.8126C466.09 29.8225 465.451 30.7249 464.638 31.4523C462.949 32.9892 460.729 33.8052 458.45 33.7268C456.272 33.7763 454.149 33.0434 452.462 31.6605C451.653 31.0005 451.002 30.1669 450.556 29.221C450.111 28.2751 449.882 27.2411 449.888 26.1949V26.2283Z" fill="white"/>
<path d="M490.641 39.1591L481.705 91.9907C480.946 98.1006 478.649 102.847 474.812 106.23C470.975 109.612 466.094 111.279 460.169 111.229C457.553 111.133 454.948 110.832 452.379 110.329L453.658 98.1978C455.065 98.5397 456.504 98.7324 457.952 98.7727C462.52 98.8338 465.227 96.4009 466.074 91.4741L475.061 39.1591H490.641ZM476.232 26.17C476.173 25.0713 476.368 23.9738 476.8 22.9625C477.232 21.9512 477.89 21.0531 478.723 20.3378C480.394 18.8296 482.572 18.0136 484.819 18.0549C487.015 17.944 489.169 18.6804 490.841 20.1128C491.64 20.7836 492.284 21.6221 492.726 22.5693C493.168 23.5165 493.397 24.5493 493.399 25.5951C493.447 26.6602 493.262 27.723 492.858 28.7089C492.453 29.6949 491.838 30.58 491.057 31.3023C489.384 32.8089 487.231 33.6676 484.984 33.7241C482.737 33.7806 480.544 33.0312 478.798 31.6106C478.001 30.9458 477.359 30.1145 476.916 29.1748C476.472 28.2351 476.239 27.2096 476.232 26.17Z" fill="white"/>
<path d="M519.685 90.3827C519.199 88.8856 518.974 87.3157 519.02 85.7419C515.527 89.5912 511.355 91.4547 506.504 91.3325C504.46 91.3623 502.431 90.9834 500.535 90.2181C498.638 89.4528 496.912 88.3164 495.458 86.875C494.041 85.5256 492.938 83.8792 492.227 82.0532C491.516 80.2271 491.216 78.2663 491.347 76.3104C491.33 73.7569 491.961 71.2411 493.18 68.9995C494.399 66.7578 496.166 64.864 498.315 63.4962C502.745 60.5134 508.835 59.022 516.587 59.022L521.778 59.1137L522.351 56.2309L522.533 53.7314C522.445 50.8486 521.016 49.36 518.248 49.2656C514.851 49.1989 512.75 51.0819 511.969 54.8978L496.397 54.9895C496.488 51.7103 497.656 48.5532 499.719 46.0079C501.983 43.3381 504.908 41.3125 508.199 40.134C511.839 38.7547 515.712 38.1037 519.602 38.2177C523.136 38.2321 526.618 39.0677 529.776 40.6589C532.561 42.0669 534.846 44.3011 536.32 47.0577C537.8 49.9707 538.378 53.2608 537.981 56.5059L534.153 80.6179L533.92 83.559C533.767 85.5801 534.089 87.6089 534.859 89.4829L534.809 90.3827H519.685ZM510.773 80.0597C513.946 80.1819 516.731 78.7766 519.128 75.8438L520.69 67.5954L516.67 67.5454C514.346 67.5549 512.091 68.3307 510.25 69.7533C509.361 70.4475 508.622 71.3158 508.078 72.3056C507.534 73.2953 507.196 74.3858 507.086 75.5105C506.989 76.0658 507.004 76.6348 507.129 77.1842C507.255 77.7336 507.489 78.2523 507.817 78.7099C508.178 79.1422 508.631 79.4878 509.142 79.7214C509.654 79.955 510.211 80.0706 510.773 80.0597Z" fill="white"/>
<path d="M563.927 67.837L577.107 39.1592H594.249L564.351 98.0895C562.136 102.739 559.561 106.096 556.627 108.163C553.572 110.274 549.928 111.359 546.22 111.262C543.903 111.185 541.604 110.836 539.368 110.221L540.548 98.8061H542.333C544.064 98.8412 545.784 98.5267 547.391 97.8812C548.973 97.1367 550.253 95.8728 551.021 94.2986L553.213 89.9828L545.041 39.1592H561.095L563.927 67.837Z" fill="white"/>
<path d="M617.579 90.3827C617.097 88.8847 616.872 87.3154 616.914 85.7419C615.381 87.5575 613.46 89.0031 611.293 89.971C609.126 90.9389 606.769 91.4043 604.398 91.3325C602.354 91.3623 600.325 90.9834 598.429 90.2181C596.532 89.4528 594.807 88.3164 593.352 86.875C591.935 85.5256 590.832 83.8792 590.121 82.0532C589.411 80.2271 589.11 78.2663 589.241 76.3104C589.222 73.7593 589.848 71.245 591.063 69.0035C592.277 66.7621 594.04 64.867 596.185 63.4962C600.653 60.5134 606.76 59.022 614.506 59.022L619.705 59.1137L620.27 56.2309L620.461 53.7314C620.328 50.8569 618.899 49.3739 616.159 49.2823C612.759 49.2156 610.666 51.093 609.88 54.9145L594.299 54.9895C594.39 51.7102 595.558 48.5528 597.621 46.0079C599.886 43.3381 602.81 41.3125 606.101 40.134C609.741 38.7547 613.615 38.1037 617.504 38.2177C621.04 38.2329 624.525 39.0684 627.686 40.6589C630.469 42.067 632.751 44.3013 634.223 47.0577C635.706 49.9694 636.285 53.2607 635.884 56.5059L632.055 80.6179L631.822 83.559C631.65 85.5906 631.957 87.6344 632.719 89.5245L632.67 90.4243L617.579 90.3827ZM608.701 80.0597C611.884 80.1819 614.669 78.7766 617.056 75.8438L618.617 67.5954L614.589 67.5454C612.263 67.5536 610.004 68.3295 608.161 69.7533C607.272 70.4475 606.533 71.3158 605.989 72.3056C605.445 73.2953 605.107 74.3858 604.996 75.5105C604.897 76.0662 604.911 76.6364 605.038 77.1864C605.166 77.7364 605.403 78.2547 605.736 78.7099C606.097 79.1443 606.551 79.4912 607.064 79.7249C607.578 79.9586 608.137 80.073 608.701 80.0597Z" fill="white"/>
<path d="M220.596 173.758H252.239L250.918 181.199H210.397L222.34 112.22H231.268L220.596 173.758Z" fill="white"/>
<path d="M282.13 182.148C275.768 182.021 270.785 179.668 267.18 175.091C263.576 170.514 262.064 164.654 262.645 157.511L262.886 155.478C263.372 150.559 264.922 145.804 267.429 141.548C269.593 137.664 272.705 134.396 276.474 132.05C279.941 129.942 283.94 128.88 287.993 128.992C293.253 129.12 297.378 130.872 300.368 134.249C303.358 137.626 304.994 142.206 305.276 147.988C305.373 150.042 305.312 152.101 305.094 154.145L304.57 158.078H271.183C270.63 162.727 271.394 166.676 273.475 169.926C275.557 173.175 278.677 174.855 282.835 174.966C287.874 175.089 292.533 172.814 296.813 168.143L301.73 172.309C299.602 175.383 296.749 177.882 293.425 179.582C289.93 181.365 286.049 182.247 282.13 182.148ZM287.561 136.149C285.858 136.083 284.16 136.369 282.571 136.988C280.983 137.607 279.538 138.546 278.326 139.748C275.701 142.242 273.617 145.952 272.072 150.879L296.913 150.929L297.104 150.171C297.602 146.189 296.963 142.881 295.185 140.248C294.362 138.976 293.231 137.933 291.898 137.217C290.565 136.5 289.073 136.133 287.561 136.149Z" fill="white"/>
<path d="M341.446 181.198C341.227 180.315 341.115 179.409 341.113 178.499L341.255 175.8C336.565 180.154 331.582 182.271 326.305 182.148C321.804 182.082 318.144 180.651 315.326 177.857C313.945 176.508 312.883 174.865 312.217 173.05C311.552 171.235 311.3 169.293 311.48 167.368C311.558 164.83 312.244 162.348 313.482 160.133C314.72 157.918 316.472 156.036 318.59 154.645C323.019 151.596 328.833 150.071 336.031 150.071L344.95 150.121L345.515 146.047C345.831 142.981 345.241 140.565 343.746 138.773C342.251 136.982 340.009 136.066 337.019 136.007C334.27 135.89 331.554 136.642 329.254 138.157C328.194 138.812 327.279 139.678 326.565 140.701C325.851 141.724 325.353 142.883 325.101 144.106L316.505 144.156C316.773 141.184 318.001 138.381 320.001 136.174C322.166 133.768 324.87 131.914 327.891 130.767C331.059 129.498 334.448 128.878 337.858 128.942C343.179 129.075 347.331 130.694 350.316 133.799C353.3 136.904 354.543 141.034 354.045 146.189L349.892 171.584L349.651 175.233C349.591 176.97 349.781 178.708 350.216 180.39L350.125 181.223L341.446 181.198ZM328.033 174.533C330.752 174.603 333.438 173.923 335.798 172.567C338.289 171.149 340.441 169.201 342.102 166.86L343.946 156.295L337.476 156.245C332.094 156.245 327.969 157.098 325.101 158.803C323.768 159.527 322.629 160.565 321.783 161.828C320.937 163.09 320.408 164.539 320.242 166.051C320.065 167.112 320.121 168.199 320.408 169.236C320.695 170.273 321.206 171.233 321.903 172.05C323.315 173.675 325.358 174.508 328.058 174.566L328.033 174.533Z" fill="white"/>
<path d="M364.202 155.479C364.815 150.382 366.358 145.442 368.753 140.906C370.637 137.175 373.474 134.012 376.976 131.741C380.157 129.781 383.841 128.799 387.573 128.917C393.492 129.05 397.963 131.294 400.986 135.649L402.689 129.917H410.529L401.974 180.107C401.061 186.65 398.417 191.885 394.043 195.812C389.669 199.739 384.284 201.611 377.889 201.428C374.422 201.359 371.015 200.505 367.923 198.928C364.899 197.473 362.318 195.232 360.448 192.438L365.307 187.181C368.396 191.763 372.474 194.116 377.54 194.238C381.283 194.482 384.976 193.274 387.856 190.863C390.668 188.464 392.534 185.053 393.453 180.632L394.4 176.083C392.53 178.067 390.263 179.632 387.749 180.677C385.234 181.722 382.528 182.224 379.808 182.148C376.847 182.125 373.958 181.226 371.502 179.566C369.042 177.792 367.146 175.341 366.046 172.509C364.715 169.232 363.994 165.739 363.92 162.202C363.875 159.957 363.969 157.712 364.202 155.479ZM372.507 160.328C372.413 164.838 373.194 168.332 374.849 170.809C376.505 173.286 378.997 174.586 382.324 174.708C387.424 174.836 391.817 172.336 395.505 167.21L399.483 143.672C397.589 139.007 394.173 136.577 389.234 136.382C384.605 136.254 380.804 138.148 377.831 142.064C374.858 145.98 373.103 151.257 372.566 157.895L372.507 160.328Z" fill="white"/>
<path d="M447.271 176.133C443.279 180.265 438.196 182.27 432.023 182.148C427.139 182.021 423.54 180.268 421.226 176.891C418.912 173.514 418.031 168.901 418.585 163.052L424.066 129.942H432.613L427.081 163.194C426.931 164.546 426.901 165.91 426.99 167.268C427.028 169.236 427.748 171.13 429.025 172.625C429.673 173.29 430.449 173.817 431.305 174.175C432.161 174.533 433.08 174.714 434.008 174.708C436.823 174.897 439.636 174.302 442.137 172.989C444.637 171.676 446.727 169.697 448.177 167.268L454.597 129.942H463.151L454.298 181.198H446.217L447.271 176.133Z" fill="white"/>
<path d="M489.113 182.148C482.751 182.021 477.768 179.668 474.164 175.091C470.559 170.514 469.048 164.654 469.629 157.511L469.87 155.478C470.345 150.561 471.884 145.807 474.38 141.548C476.543 137.664 479.656 134.396 483.424 132.05C486.906 129.932 490.924 128.87 494.993 128.992C500.248 129.12 504.373 130.872 507.368 134.249C510.364 137.626 512 142.206 512.277 147.988C512.375 150.042 512.311 152.101 512.086 154.145L511.571 158.078H478.183C477.63 162.727 478.394 166.676 480.476 169.926C482.558 173.175 485.672 174.855 489.819 174.966C494.863 175.089 499.522 172.814 503.797 168.143L508.714 172.309C506.586 175.383 503.732 177.882 500.408 179.582C496.914 181.365 493.032 182.247 489.113 182.148ZM494.545 136.149C492.842 136.083 491.144 136.369 489.555 136.988C487.967 137.607 486.522 138.546 485.309 139.748C482.685 142.242 480.6 145.953 479.056 150.879L503.897 150.929L504.079 150.171C504.583 146.189 503.946 142.881 502.169 140.248C501.345 138.976 500.214 137.933 498.881 137.217C497.549 136.5 496.057 136.133 494.545 136.149Z" fill="white"/>
</g>
<defs>
<clipPath id="clip0_359_2216">
<rect width="636" height="217" fill="white"/>
</clipPath>
</defs>
</svg>
