<svg width="561" height="190" viewBox="0 0 561 190" fill="none" xmlns="http://www.w3.org/2000/svg">
<g clip-path="url(#clip0_359_2218)">
<path d="M83.7346 85.5347L0 36.3878L69.3759 0L147.199 77.4517L34.5048 190H0.556766C0.556766 190 28.2632 154.451 42.0724 137.286C55.8817 120.121 83.7346 85.5347 83.7346 85.5347Z" fill="url(#paint0_linear_359_2218)"/>
<path d="M123.382 189.869C138.959 189.869 151.587 177.294 151.587 161.783C151.587 146.271 138.959 133.697 123.382 133.697C107.805 133.697 95.1776 146.271 95.1776 161.783C95.1776 177.294 107.805 189.869 123.382 189.869Z" fill="url(#paint1_linear_359_2218)"/>
<path d="M198.597 79.1369L209.095 18.741L228.376 18.7848C235.986 18.814 241.666 20.2511 245.416 23.0962C249.167 25.9413 250.877 29.939 250.545 35.0893C250.124 41.4506 246.625 45.9565 240.047 48.607C242.368 49.4039 244.327 51.0001 245.57 53.1081C246.935 55.477 247.524 58.2106 247.255 60.9284C246.869 66.7644 244.557 71.2582 240.318 74.4097C236.078 77.5611 230.284 79.1369 222.933 79.1369H198.597ZM217.344 53.4655L214.802 67.8952L223.336 67.9389C225.714 68.0258 228.055 67.3367 230.003 65.9766C230.861 65.3647 231.585 64.5844 232.129 63.6836C232.673 62.7828 233.027 61.7806 233.168 60.7387C233.944 56.1331 232.166 53.7209 227.834 53.502L217.344 53.4655ZM218.963 43.9236H225.673C231.866 43.7874 235.336 41.4165 236.083 36.8109C236.752 32.2685 234.393 29.9803 229.006 29.9462L221.424 29.9098L218.963 43.9236Z" fill="#1C2328"/>
<path d="M284.28 46.9073C282.872 46.6946 281.454 46.5558 280.031 46.4915C275.919 46.3796 272.781 47.79 270.617 50.7226L265.533 79.1733H251.834L259.665 34.2868L272.449 34.243L271.409 40.1229C274.339 35.5853 277.809 33.3166 281.819 33.3166C283.252 33.3562 284.677 33.5519 286.068 33.9002L284.28 46.9073Z" fill="#1C2328"/>
<path d="M307.686 79.1369C307.258 77.8261 307.059 76.4515 307.1 75.0735C304.018 78.4438 300.338 80.0755 296.06 79.9685C294.257 79.9946 292.467 79.6629 290.794 78.9928C289.121 78.3227 287.599 77.3277 286.317 76.0657C285.066 74.8841 284.093 73.4426 283.466 71.8437C282.84 70.2449 282.575 68.528 282.69 66.8155C282.668 64.5809 283.219 62.3777 284.291 60.4143C285.362 58.4509 286.92 56.7924 288.815 55.5957C292.756 52.9841 298.143 51.6782 304.976 51.6782L309.554 51.7585L310.06 49.2344L310.221 47.0459C310.109 44.5315 308.846 43.233 306.434 43.1503C303.437 43.092 301.584 44.7406 300.895 48.0818L287.174 48.1474C287.254 45.2763 288.285 42.5119 290.104 40.2834C292.099 37.9432 294.679 36.1691 297.584 35.1403C300.806 33.9146 304.238 33.3321 307.686 33.426C310.803 33.4386 313.875 34.1702 316.66 35.5634C319.117 36.7963 321.132 38.7524 322.433 41.1661C323.739 43.7166 324.249 46.5973 323.898 49.4387L320.521 70.5506L320.316 73.1257C320.164 74.9046 320.435 76.694 321.107 78.349L321.063 79.1369H307.686ZM299.862 70.0983C302.661 70.2053 305.117 68.9748 307.232 66.407L308.609 59.1849L305.064 59.1411C303.014 59.1494 301.024 59.8287 299.401 61.0743C298.616 61.6821 297.965 62.4424 297.485 63.309C297.005 64.1756 296.707 65.1304 296.61 66.1152C296.521 66.6013 296.532 67.1002 296.643 67.5817C296.754 68.0633 296.962 68.5174 297.254 68.9165C297.573 69.295 297.972 69.5976 298.424 69.8021C298.875 70.0066 299.366 70.1078 299.862 70.0983Z" fill="#1C2328"/>
<path d="M367.421 60.6804L376.461 34.2868H389.875L371.758 79.1661H360.22L357.634 52.6704L345.781 79.1369H334.14L331.642 34.2868H344.513L344.096 61.0013L355.634 34.2868H365.158L367.421 60.6804Z" fill="#1C2328"/>
<path d="M401.538 79.1369H387.795L395.597 34.2868H409.369L401.538 79.1369ZM396.835 22.9649C396.787 22.0153 396.955 21.0672 397.325 20.1908C397.695 19.3144 398.259 18.5322 398.974 17.9021C400.44 16.5392 402.382 15.7987 404.388 15.8376C406.334 15.7738 408.237 16.4226 409.736 17.6614C410.435 18.2457 410.998 18.9757 411.384 19.8C411.77 20.6243 411.97 21.5228 411.97 22.4323C412.025 23.3879 411.862 24.3435 411.495 25.2277C411.127 26.1119 410.563 26.902 409.845 27.5389C408.356 28.8846 406.398 29.5991 404.388 29.5304C402.467 29.5737 400.593 28.9321 399.106 27.7213C398.392 27.1433 397.818 26.4134 397.425 25.5852C397.032 24.7571 396.83 23.8517 396.835 22.9357V22.9649Z" fill="#1C2328"/>
<path d="M432.783 34.2868L424.9 80.5448C424.231 85.8945 422.204 90.0503 418.82 93.0121C415.435 95.9739 411.13 97.4329 405.904 97.3891C403.596 97.3053 401.299 97.0419 399.032 96.6013L400.161 85.9796C401.402 86.279 402.671 86.4477 403.948 86.483C407.977 86.5365 410.366 84.4063 411.113 80.0925L419.039 34.2868H432.783ZM420.072 22.9138C420.021 21.9518 420.192 20.9909 420.573 20.1054C420.955 19.2199 421.535 18.4336 422.27 17.8073C423.743 16.4867 425.665 15.7723 427.647 15.8084C429.584 15.7114 431.484 16.3561 432.959 17.6103C433.664 18.1976 434.232 18.9318 434.621 19.7611C435.011 20.5905 435.214 21.4948 435.215 22.4104C435.258 23.343 435.095 24.2736 434.738 25.1369C434.381 26.0001 433.839 26.7752 433.149 27.4076C431.674 28.7267 429.775 29.4785 427.793 29.528C425.81 29.5775 423.876 28.9213 422.336 27.6775C421.633 27.0954 421.067 26.3676 420.676 25.5448C420.285 24.722 420.079 23.8241 420.072 22.9138Z" fill="#1C2328"/>
<path d="M458.401 79.1369C457.972 77.8261 457.774 76.4515 457.815 75.0735C454.733 78.4439 451.053 80.0755 446.775 79.9685C444.972 79.9946 443.182 79.6629 441.509 78.9928C439.836 78.3227 438.314 77.3277 437.032 76.0657C435.781 74.8842 434.808 73.4426 434.181 71.8437C433.555 70.2449 433.29 68.528 433.405 66.8155C433.39 64.5798 433.947 62.377 435.022 60.4142C436.097 58.4515 437.656 56.7933 439.552 55.5957C443.459 52.9841 448.831 51.6782 455.669 51.6782L460.247 51.7585L460.753 49.2344L460.914 47.0459C460.836 44.5218 459.576 43.2184 457.134 43.1357C454.138 43.0774 452.284 44.7261 451.595 48.0672L437.859 48.1474C437.94 45.2763 438.97 42.5119 440.79 40.2834C442.787 37.9458 445.367 36.1722 448.27 35.1403C451.48 33.9327 454.897 33.3627 458.328 33.4625C461.445 33.4751 464.517 34.2067 467.302 35.5999C469.759 36.8327 471.774 38.7889 473.075 41.2025C474.38 43.7531 474.89 46.6338 474.54 49.4751L471.163 70.5871L470.958 73.1622C470.823 74.9318 471.106 76.7082 471.786 78.349L471.742 79.1369H458.401ZM450.541 70.0983C453.339 70.2053 455.796 68.9748 457.91 66.407L459.288 59.1849L455.742 59.1411C453.692 59.1494 451.703 59.8287 450.079 61.0743C449.295 61.6821 448.643 62.4424 448.163 63.309C447.683 64.1756 447.385 65.1304 447.288 66.1152C447.203 66.6013 447.216 67.0996 447.326 67.5806C447.437 68.0616 447.643 68.5158 447.933 68.9165C448.251 69.295 448.651 69.5976 449.102 69.8021C449.553 70.0066 450.045 70.1078 450.541 70.0983Z" fill="#1C2328"/>
<path d="M497.426 59.3964L509.052 34.2868H524.173L497.8 85.8848C495.846 89.9555 493.575 92.8954 490.987 94.7046C488.292 96.5529 485.078 97.503 481.807 97.4183C479.764 97.3512 477.735 97.0452 475.764 96.5064L476.804 86.5122H478.379C479.906 86.5429 481.423 86.2676 482.84 85.7024C484.235 85.0506 485.365 83.9439 486.042 82.5656L487.976 78.7867L480.767 34.2868H494.928L497.426 59.3964Z" fill="#1C2328"/>
<path d="M544.751 79.1369C544.326 77.8253 544.128 76.4513 544.165 75.0735C542.813 76.6632 541.118 77.9289 539.206 78.7764C537.295 79.6238 535.216 80.0313 533.125 79.9685C531.322 79.9946 529.532 79.6629 527.859 78.9928C526.186 78.3227 524.664 77.3277 523.382 76.0656C522.131 74.8841 521.158 73.4426 520.531 71.8437C519.905 70.2449 519.64 68.528 519.755 66.8155C519.738 64.5818 520.291 62.3804 521.362 60.4178C522.433 58.4552 523.988 56.7959 525.88 55.5957C529.821 52.9841 535.208 51.6782 542.041 51.6782L546.627 51.7585L547.125 49.2344L547.293 47.0459C547.176 44.5291 545.916 43.2306 543.498 43.1503C540.5 43.092 538.654 44.7358 537.96 48.0818L524.217 48.1474C524.297 45.2762 525.327 42.5117 527.147 40.2834C529.145 37.9458 531.724 36.1722 534.627 35.1403C537.838 33.9327 541.255 33.3627 544.685 33.4625C547.805 33.4758 550.879 34.2073 553.667 35.5999C556.121 36.8328 558.135 38.7891 559.432 41.2025C560.741 43.7519 561.251 46.6337 560.897 49.4751L557.52 70.5871L557.315 73.1622C557.163 74.941 557.434 76.7305 558.106 78.3855L558.062 79.1733L544.751 79.1369ZM536.92 70.0983C539.728 70.2053 542.185 68.9748 544.29 66.407L545.667 59.1849L542.114 59.1411C540.062 59.1483 538.069 59.8276 536.444 61.0743C535.659 61.6821 535.007 62.4424 534.528 63.309C534.048 64.1756 533.75 65.1304 533.653 66.1152C533.565 66.6017 533.578 67.101 533.69 67.5825C533.802 68.0641 534.011 68.5179 534.305 68.9165C534.623 69.2968 535.024 69.6005 535.476 69.8052C535.929 70.0098 536.423 70.11 536.92 70.0983Z" fill="#1C2328"/>
<path d="M198.597 79.1369L209.095 18.741L228.376 18.7848C235.986 18.814 241.666 20.2511 245.416 23.0962C249.167 25.9413 250.877 29.939 250.545 35.0893C250.124 41.4506 246.625 45.9565 240.047 48.607C242.368 49.4039 244.327 51.0001 245.57 53.1081C246.935 55.477 247.524 58.2106 247.255 60.9284C246.869 66.7644 244.557 71.2582 240.318 74.4097C236.078 77.5611 230.284 79.1369 222.933 79.1369H198.597ZM217.344 53.4655L214.802 67.8952L223.336 67.9389C225.714 68.0258 228.055 67.3367 230.003 65.9766C230.861 65.3647 231.585 64.5844 232.129 63.6836C232.673 62.7828 233.027 61.7806 233.168 60.7387C233.944 56.1331 232.166 53.7209 227.834 53.502L217.344 53.4655ZM218.963 43.9236H225.673C231.866 43.7874 235.336 41.4165 236.083 36.8109C236.752 32.2685 234.393 29.9803 229.006 29.9462L221.424 29.9098L218.963 43.9236Z" fill="white"/>
<path d="M284.28 46.9073C282.872 46.6946 281.454 46.5558 280.031 46.4915C275.919 46.3796 272.781 47.79 270.617 50.7226L265.533 79.1733H251.834L259.665 34.2868L272.449 34.243L271.409 40.1229C274.339 35.5853 277.809 33.3166 281.819 33.3166C283.252 33.3562 284.677 33.5519 286.068 33.9002L284.28 46.9073Z" fill="white"/>
<path d="M307.686 79.1369C307.258 77.8261 307.059 76.4515 307.1 75.0735C304.018 78.4438 300.338 80.0755 296.06 79.9685C294.257 79.9946 292.467 79.6629 290.794 78.9928C289.121 78.3227 287.599 77.3277 286.317 76.0657C285.066 74.8841 284.093 73.4426 283.466 71.8437C282.84 70.2449 282.575 68.528 282.69 66.8155C282.668 64.5809 283.219 62.3777 284.291 60.4143C285.362 58.4509 286.92 56.7924 288.815 55.5957C292.756 52.9841 298.143 51.6782 304.976 51.6782L309.554 51.7585L310.06 49.2344L310.221 47.0459C310.109 44.5315 308.846 43.233 306.434 43.1503C303.437 43.092 301.584 44.7406 300.895 48.0818L287.174 48.1474C287.254 45.2763 288.285 42.5119 290.104 40.2834C292.099 37.9432 294.679 36.1691 297.584 35.1403C300.806 33.9146 304.238 33.3321 307.686 33.426C310.803 33.4386 313.875 34.1702 316.66 35.5634C319.117 36.7963 321.132 38.7524 322.433 41.1661C323.739 43.7166 324.249 46.5973 323.898 49.4387L320.521 70.5506L320.316 73.1257C320.164 74.9046 320.435 76.694 321.107 78.349L321.063 79.1369H307.686ZM299.862 70.0983C302.661 70.2053 305.117 68.9748 307.232 66.407L308.609 59.1849L305.064 59.1411C303.014 59.1494 301.024 59.8287 299.401 61.0743C298.616 61.6821 297.965 62.4424 297.485 63.309C297.005 64.1756 296.707 65.1304 296.61 66.1152C296.521 66.6013 296.532 67.1002 296.643 67.5817C296.754 68.0633 296.962 68.5174 297.254 68.9165C297.573 69.295 297.972 69.5976 298.424 69.8021C298.875 70.0066 299.366 70.1078 299.862 70.0983Z" fill="white"/>
<path d="M367.421 60.6804L376.461 34.2868H389.875L371.758 79.1661H360.22L357.634 52.6704L345.781 79.1369H334.14L331.642 34.2868H344.513L344.096 61.0013L355.634 34.2868H365.158L367.421 60.6804Z" fill="white"/>
<path d="M401.538 79.1369H387.795L395.597 34.2868H409.369L401.538 79.1369ZM396.835 22.9649C396.787 22.0153 396.955 21.0672 397.325 20.1908C397.695 19.3144 398.259 18.5322 398.974 17.9021C400.44 16.5392 402.382 15.7987 404.388 15.8376C406.334 15.7738 408.237 16.4226 409.736 17.6614C410.435 18.2457 410.998 18.9757 411.384 19.8C411.77 20.6243 411.97 21.5228 411.97 22.4323C412.025 23.3879 411.862 24.3435 411.495 25.2277C411.127 26.1119 410.563 26.902 409.845 27.5389C408.356 28.8846 406.398 29.5991 404.388 29.5304C402.467 29.5737 400.593 28.9321 399.106 27.7213C398.392 27.1433 397.818 26.4134 397.425 25.5852C397.032 24.7571 396.83 23.8517 396.835 22.9357V22.9649Z" fill="white"/>
<path d="M432.783 34.2868L424.9 80.5448C424.231 85.8945 422.204 90.0503 418.82 93.0121C415.435 95.9739 411.13 97.4329 405.904 97.3891C403.596 97.3053 401.299 97.0419 399.032 96.6013L400.161 85.9796C401.402 86.279 402.671 86.4477 403.948 86.483C407.977 86.5365 410.366 84.4063 411.113 80.0925L419.039 34.2868H432.783ZM420.072 22.9138C420.021 21.9518 420.192 20.9909 420.573 20.1054C420.955 19.2199 421.535 18.4336 422.27 17.8073C423.743 16.4867 425.665 15.7723 427.647 15.8084C429.584 15.7114 431.484 16.3561 432.959 17.6103C433.664 18.1976 434.232 18.9318 434.621 19.7611C435.011 20.5905 435.214 21.4948 435.215 22.4104C435.258 23.343 435.095 24.2736 434.738 25.1369C434.381 26.0001 433.839 26.7752 433.149 27.4076C431.674 28.7267 429.775 29.4785 427.793 29.528C425.81 29.5775 423.876 28.9213 422.336 27.6775C421.633 27.0954 421.067 26.3676 420.676 25.5448C420.285 24.722 420.079 23.8241 420.072 22.9138Z" fill="white"/>
<path d="M458.401 79.1369C457.972 77.8261 457.774 76.4515 457.815 75.0735C454.733 78.4439 451.053 80.0755 446.775 79.9685C444.972 79.9946 443.182 79.6629 441.509 78.9928C439.836 78.3227 438.314 77.3277 437.032 76.0657C435.781 74.8842 434.808 73.4426 434.181 71.8437C433.555 70.2449 433.29 68.528 433.405 66.8155C433.39 64.5798 433.947 62.377 435.022 60.4142C436.097 58.4515 437.656 56.7933 439.552 55.5957C443.459 52.9841 448.831 51.6782 455.669 51.6782L460.247 51.7585L460.753 49.2344L460.914 47.0459C460.836 44.5218 459.576 43.2184 457.134 43.1357C454.138 43.0774 452.284 44.7261 451.595 48.0672L437.859 48.1474C437.94 45.2763 438.97 42.5119 440.79 40.2834C442.787 37.9458 445.367 36.1722 448.27 35.1403C451.48 33.9327 454.897 33.3627 458.328 33.4625C461.445 33.4751 464.517 34.2067 467.302 35.5999C469.759 36.8327 471.774 38.7889 473.075 41.2025C474.38 43.7531 474.89 46.6338 474.54 49.4751L471.163 70.5871L470.958 73.1622C470.823 74.9318 471.106 76.7082 471.786 78.349L471.742 79.1369H458.401ZM450.541 70.0983C453.339 70.2053 455.796 68.9748 457.91 66.407L459.288 59.1849L455.742 59.1411C453.692 59.1494 451.703 59.8287 450.079 61.0743C449.295 61.6821 448.643 62.4424 448.163 63.309C447.683 64.1756 447.385 65.1304 447.288 66.1152C447.203 66.6013 447.216 67.0996 447.326 67.5806C447.437 68.0616 447.643 68.5158 447.933 68.9165C448.251 69.295 448.651 69.5976 449.102 69.8021C449.553 70.0066 450.045 70.1078 450.541 70.0983Z" fill="white"/>
<path d="M497.426 59.3964L509.052 34.2868H524.173L497.8 85.8848C495.846 89.9555 493.575 92.8954 490.987 94.7046C488.292 96.5529 485.078 97.503 481.807 97.4183C479.764 97.3512 477.735 97.0452 475.764 96.5064L476.804 86.5122H478.379C479.906 86.5429 481.423 86.2676 482.84 85.7024C484.235 85.0506 485.365 83.9439 486.042 82.5656L487.976 78.7867L480.767 34.2868H494.928L497.426 59.3964Z" fill="white"/>
<path d="M544.751 79.1369C544.326 77.8253 544.128 76.4513 544.165 75.0735C542.813 76.6632 541.118 77.9289 539.206 78.7764C537.295 79.6238 535.216 80.0313 533.125 79.9685C531.322 79.9946 529.532 79.6629 527.859 78.9928C526.186 78.3227 524.664 77.3277 523.382 76.0656C522.131 74.8841 521.158 73.4426 520.531 71.8437C519.905 70.2449 519.64 68.528 519.755 66.8155C519.738 64.5818 520.291 62.3804 521.362 60.4178C522.433 58.4552 523.988 56.7959 525.88 55.5957C529.821 52.9841 535.208 51.6782 542.041 51.6782L546.627 51.7585L547.125 49.2344L547.293 47.0459C547.176 44.5291 545.916 43.2306 543.498 43.1503C540.5 43.092 538.654 44.7358 537.96 48.0818L524.217 48.1474C524.297 45.2762 525.327 42.5117 527.147 40.2834C529.145 37.9458 531.724 36.1722 534.627 35.1403C537.838 33.9327 541.255 33.3627 544.685 33.4625C547.805 33.4758 550.879 34.2073 553.667 35.5999C556.121 36.8328 558.135 38.7891 559.432 41.2025C560.741 43.7519 561.251 46.6337 560.897 49.4751L557.52 70.5871L557.315 73.1622C557.163 74.941 557.434 76.7305 558.106 78.3855L558.062 79.1733L544.751 79.1369ZM536.92 70.0983C539.728 70.2053 542.185 68.9748 544.29 66.407L545.667 59.1849L542.114 59.1411C540.062 59.1483 538.069 59.8276 536.444 61.0743C535.659 61.6821 535.007 62.4424 534.528 63.309C534.048 64.1756 533.75 65.1304 533.653 66.1152C533.565 66.6017 533.578 67.101 533.69 67.5825C533.802 68.0641 534.011 68.5179 534.305 68.9165C534.623 69.2968 535.024 69.6005 535.476 69.8052C535.929 70.0098 536.423 70.11 536.92 70.0983Z" fill="white"/>
<path d="M194.582 152.139H222.494L221.329 158.653H185.586L196.121 98.2572H203.996L194.582 152.139Z" fill="white"/>
<path d="M248.86 159.485C243.248 159.373 238.852 157.313 235.673 153.306C232.494 149.298 231.16 144.168 231.673 137.913L231.886 136.133C232.314 131.826 233.682 127.663 235.893 123.936C237.801 120.535 240.547 117.674 243.871 115.62C246.929 113.774 250.457 112.845 254.032 112.942C258.671 113.054 262.31 114.588 264.947 117.545C267.585 120.502 269.028 124.512 269.277 129.575C269.362 131.373 269.308 133.176 269.116 134.966L268.654 138.409H239.204C238.716 142.48 239.39 145.938 241.226 148.783C243.062 151.628 245.814 153.099 249.482 153.196C253.927 153.303 258.036 151.312 261.812 147.222L266.149 150.869C264.272 153.561 261.755 155.749 258.823 157.238C255.741 158.799 252.317 159.571 248.86 159.485ZM253.651 119.209C252.149 119.151 250.651 119.401 249.249 119.943C247.848 120.485 246.574 121.308 245.504 122.36C243.189 124.544 241.351 127.793 239.988 132.106L261.9 132.15L262.068 131.486C262.508 127.999 261.944 125.103 260.376 122.798C259.649 121.684 258.652 120.771 257.476 120.144C256.3 119.516 254.985 119.195 253.651 119.209Z" fill="white"/>
<path d="M301.181 158.653C300.988 157.88 300.89 157.086 300.888 156.289L301.012 153.926C296.876 157.739 292.48 159.592 287.826 159.485C283.855 159.426 280.627 158.174 278.141 155.728C276.923 154.546 275.986 153.108 275.399 151.518C274.812 149.929 274.59 148.229 274.749 146.543C274.817 144.321 275.423 142.148 276.515 140.209C277.606 138.269 279.152 136.621 281.02 135.404C284.927 132.734 290.055 131.399 296.404 131.399L304.272 131.442L304.771 127.875C305.049 125.191 304.529 123.075 303.21 121.507C301.891 119.938 299.914 119.136 297.276 119.085C294.851 118.982 292.456 119.641 290.427 120.967C289.492 121.541 288.685 122.299 288.055 123.194C287.425 124.09 286.986 125.105 286.764 126.175L279.181 126.219C279.418 123.617 280.5 121.163 282.265 119.231C284.175 117.124 286.56 115.501 289.225 114.496C292.019 113.386 295.008 112.842 298.016 112.898C302.71 113.015 306.372 114.433 309.005 117.151C311.637 119.87 312.734 123.486 312.294 127.999L308.631 150.235L308.419 153.43C308.365 154.951 308.533 156.472 308.917 157.945L308.836 158.675L301.181 158.653ZM289.35 152.817C291.748 152.878 294.117 152.283 296.199 151.095C298.397 149.854 300.295 148.148 301.76 146.098L303.386 136.848L297.679 136.804C292.932 136.804 289.293 137.551 286.764 139.044C285.587 139.678 284.583 140.587 283.837 141.692C283.091 142.798 282.624 144.067 282.478 145.391C282.321 146.32 282.371 147.271 282.624 148.179C282.878 149.087 283.328 149.928 283.943 150.643C285.189 152.066 286.991 152.795 289.372 152.846L289.35 152.817Z" fill="white"/>
<path d="M321.254 136.133C321.794 131.671 323.155 127.346 325.268 123.374C326.93 120.107 329.433 117.338 332.521 115.35C335.327 113.633 338.577 112.773 341.869 112.877C347.09 112.993 351.033 114.958 353.7 118.771L355.202 113.752H362.117L354.572 157.697C353.766 163.426 351.434 168.01 347.576 171.449C343.717 174.887 338.968 176.526 333.327 176.366C330.268 176.305 327.263 175.557 324.536 174.177C321.868 172.903 319.592 170.94 317.943 168.494L322.228 163.891C324.953 167.903 328.55 169.963 333.019 170.07C336.32 170.284 339.578 169.226 342.118 167.115C344.599 165.014 346.245 162.028 347.055 158.157L347.891 154.174C346.241 155.911 344.242 157.281 342.024 158.197C339.806 159.112 337.419 159.551 335.019 159.485C332.407 159.464 329.859 158.677 327.693 157.223C325.522 155.671 323.851 153.524 322.88 151.044C321.706 148.176 321.07 145.117 321.005 142.02C320.965 140.055 321.049 138.089 321.254 136.133ZM328.58 140.379C328.497 144.328 329.185 147.387 330.646 149.556C332.106 151.725 334.304 152.863 337.239 152.97C341.737 153.082 345.612 150.894 348.865 146.405L352.374 125.796C350.704 121.711 347.69 119.583 343.334 119.413C339.251 119.301 335.898 120.959 333.276 124.388C330.653 127.817 329.105 132.437 328.631 138.249L328.58 140.379Z" fill="white"/>
<path d="M394.527 154.218C391.006 157.836 386.522 159.592 381.077 159.485C376.769 159.373 373.595 157.838 371.553 154.882C369.512 151.925 368.735 147.886 369.223 142.764L374.059 113.774H381.597L376.718 142.888C376.585 144.073 376.559 145.267 376.637 146.456C376.671 148.179 377.306 149.837 378.432 151.146C379.004 151.729 379.688 152.19 380.444 152.503C381.199 152.817 382.01 152.976 382.828 152.97C385.311 153.136 387.792 152.615 389.998 151.465C392.203 150.316 394.047 148.582 395.326 146.456L400.988 113.774H408.534L400.725 158.653H393.597L394.527 154.218Z" fill="white"/>
<path d="M431.435 159.485C425.823 159.373 421.428 157.313 418.248 153.306C415.069 149.298 413.736 144.168 414.248 137.913L414.461 136.133C414.88 131.828 416.238 127.665 418.439 123.936C420.347 120.535 423.093 117.674 426.417 115.619C429.487 113.765 433.032 112.835 436.621 112.942C441.256 113.054 444.895 114.588 447.537 117.545C450.179 120.502 451.622 124.512 451.867 129.575C451.953 131.374 451.897 133.176 451.698 134.966L451.244 138.409H421.794C421.306 142.48 421.98 145.938 423.816 148.783C425.652 151.628 428.399 153.099 432.057 153.196C436.507 153.303 440.617 151.312 444.387 147.222L448.724 150.869C446.847 153.561 444.33 155.749 441.398 157.238C438.316 158.799 434.892 159.571 431.435 159.485ZM436.226 119.209C434.724 119.151 433.226 119.401 431.825 119.943C430.423 120.485 429.149 121.308 428.08 122.36C425.765 124.544 423.926 127.793 422.563 132.106L444.475 132.15L444.636 131.486C445.08 127.999 444.519 125.103 442.951 122.798C442.224 121.684 441.227 120.771 440.051 120.144C438.875 119.516 437.56 119.195 436.226 119.209Z" fill="white"/>
</g>
<defs>
<linearGradient id="paint0_linear_359_2218" x1="-27.4354" y1="51.277" x2="122.654" y2="157.315" gradientUnits="userSpaceOnUse">
<stop stop-color="#F79940"/>
<stop offset="0.01" stop-color="#F79940"/>
<stop offset="0.66" stop-color="#EB701D"/>
<stop offset="1" stop-color="#E66110"/>
</linearGradient>
<linearGradient id="paint1_linear_359_2218" x1="70.4821" y1="130.713" x2="159.743" y2="183.581" gradientUnits="userSpaceOnUse">
<stop stop-color="#34A6FC"/>
<stop offset="0.01" stop-color="#33A5FB"/>
<stop offset="0.42" stop-color="#1786E1"/>
<stop offset="0.76" stop-color="#0674D1"/>
<stop offset="1" stop-color="#006DCB"/>
</linearGradient>
<clipPath id="clip0_359_2218">
<rect width="561" height="190" fill="white"/>
</clipPath>
</defs>
</svg>
