<svg width="766" height="261" viewBox="0 0 766 261" fill="none" xmlns="http://www.w3.org/2000/svg">
<g clip-path="url(#clip0_359_2215)">
<path d="M114.3 117.25L0 49.88L94.7 0L200.93 106.17L47.1 260.45H0.76C0.76 260.45 38.58 211.72 57.43 188.19C76.28 164.66 114.3 117.25 114.3 117.25Z" fill="url(#paint0_linear_359_2215)"/>
<path d="M168.42 260.27C189.683 260.27 206.92 243.033 206.92 221.77C206.92 200.507 189.683 183.27 168.42 183.27C147.157 183.27 129.92 200.507 129.92 221.77C129.92 243.033 147.157 260.27 168.42 260.27Z" fill="url(#paint1_linear_359_2215)"/>
<path d="M271.09 108.48L285.42 25.69L311.74 25.75C322.127 25.79 329.88 27.76 335 31.66C340.12 35.56 342.453 41.04 342 48.1C341.427 56.82 336.65 62.9967 327.67 66.63C330.838 67.7223 333.512 69.9104 335.21 72.8C337.073 76.0472 337.877 79.7944 337.51 83.52C336.983 91.52 333.827 97.68 328.04 102C322.253 106.32 314.343 108.48 304.31 108.48H271.09ZM296.68 73.29L293.21 93.07L304.86 93.13C308.105 93.249 311.301 92.3044 313.96 90.44C315.132 89.6013 316.12 88.5316 316.863 87.2968C317.606 86.062 318.088 84.6882 318.28 83.26C319.34 76.9467 316.913 73.64 311 73.34L296.68 73.29ZM298.89 60.21H308.05C316.503 60.0233 321.24 56.7733 322.26 50.46C323.173 44.2333 319.953 41.0967 312.6 41.05L302.25 41L298.89 60.21Z" fill="#1C2328"/>
<path d="M388.05 64.3C386.128 64.0084 384.192 63.8182 382.25 63.73C376.637 63.5767 372.353 65.51 369.4 69.53L362.46 108.53H343.76L354.45 47L371.9 46.94L370.48 55C374.48 48.78 379.217 45.67 384.69 45.67C386.647 45.7243 388.592 45.9925 390.49 46.47L388.05 64.3Z" fill="#1C2328"/>
<path d="M420 108.48C419.415 106.683 419.144 104.799 419.2 102.91C414.993 107.53 409.97 109.767 404.13 109.62C401.669 109.656 399.225 109.201 396.942 108.283C394.658 107.364 392.581 106 390.83 104.27C389.123 102.65 387.795 100.674 386.939 98.4826C386.084 96.2909 385.722 93.9375 385.88 91.59C385.85 88.5269 386.601 85.5067 388.064 82.8153C389.527 80.1239 391.653 77.8504 394.24 76.21C399.62 72.63 406.973 70.84 416.3 70.84L422.55 70.95L423.24 67.49L423.46 64.49C423.307 61.0433 421.583 59.2633 418.29 59.15C414.2 59.07 411.67 61.33 410.73 65.91L392 66C392.11 62.0643 393.516 58.2749 396 55.22C398.723 52.0122 402.245 49.5802 406.21 48.17C410.608 46.4898 415.294 45.6913 420 45.82C424.255 45.8373 428.448 46.8401 432.25 48.75C435.603 50.4399 438.354 53.1214 440.13 56.43C441.912 59.9263 442.608 63.8752 442.13 67.77L437.52 96.71L437.24 100.24C437.032 102.678 437.402 105.131 438.32 107.4L438.26 108.48H420ZM409.32 96.09C413.14 96.2367 416.493 94.55 419.38 91.03L421.26 81.13L416.42 81.07C413.622 81.0813 410.906 82.0125 408.69 83.72C407.619 84.5531 406.73 85.5954 406.075 86.7833C405.42 87.9712 405.013 89.28 404.88 90.63C404.759 91.2963 404.775 91.9802 404.926 92.6403C405.077 93.3004 405.361 93.9229 405.76 94.47C406.195 94.9888 406.74 95.4037 407.356 95.684C407.972 95.9644 408.643 96.1031 409.32 96.09Z" fill="#1C2328"/>
<path d="M501.54 83.18L513.88 47H532.19L507.46 108.52H491.71L488.18 72.2L472 108.48H456.11L452.7 47H470.27L469.7 83.62L485.45 47H498.45L501.54 83.18Z" fill="#1C2328"/>
<path d="M548.11 108.48H529.35L540 47H558.8L548.11 108.48ZM541.69 31.48C541.625 30.1783 541.854 28.8786 542.359 27.6773C542.865 26.476 543.634 25.4038 544.61 24.54C546.612 22.6717 549.262 21.6566 552 21.71C554.657 21.6225 557.254 22.512 559.3 24.21C560.255 25.011 561.024 26.0116 561.551 27.1416C562.078 28.2715 562.35 29.5032 562.35 30.75C562.425 32.0598 562.203 33.3697 561.701 34.5818C561.199 35.794 560.429 36.877 559.45 37.75C557.417 39.5947 554.744 40.5741 552 40.48C549.378 40.5393 546.821 39.6598 544.79 38C543.816 37.2078 543.032 36.2072 542.495 35.072C541.959 33.9367 541.684 32.6956 541.69 31.44V31.48Z" fill="#1C2328"/>
<path d="M590.76 47L580 110.41C579.087 117.743 576.32 123.44 571.7 127.5C567.08 131.56 561.203 133.56 554.07 133.5C550.92 133.385 547.784 133.024 544.69 132.42L546.23 117.86C547.924 118.27 549.657 118.502 551.4 118.55C556.9 118.623 560.16 115.703 561.18 109.79L572 47H590.76ZM573.41 31.41C573.34 30.0913 573.574 28.7741 574.094 27.5603C574.614 26.3465 575.407 25.2686 576.41 24.41C578.421 22.5998 581.045 21.6205 583.75 21.67C586.393 21.537 588.988 22.4208 591 24.14C591.963 24.9451 592.738 25.9515 593.27 27.0883C593.802 28.2252 594.078 29.4648 594.08 30.72C594.138 31.9984 593.916 33.274 593.429 34.4574C592.942 35.6407 592.201 36.7031 591.26 37.57C589.246 39.3782 586.654 40.4089 583.948 40.4767C581.243 40.5445 578.602 39.6451 576.5 37.94C575.541 37.1421 574.767 36.1444 574.233 35.0165C573.7 33.8886 573.419 32.6578 573.41 31.41Z" fill="#1C2328"/>
<path d="M625.73 108.48C625.145 106.683 624.874 104.799 624.93 102.91C620.723 107.53 615.7 109.767 609.86 109.62C607.399 109.656 604.955 109.201 602.672 108.283C600.388 107.364 598.311 106 596.56 104.27C594.853 102.65 593.525 100.674 592.669 98.4827C591.814 96.2909 591.452 93.9375 591.61 91.59C591.589 88.5253 592.349 85.5057 593.816 82.8152C595.284 80.1247 597.412 77.8517 600 76.21C605.333 72.63 612.667 70.84 622 70.84L628.25 70.95L628.94 67.49L629.16 64.49C629.053 61.03 627.333 59.2433 624 59.13C619.91 59.05 617.38 61.31 616.44 65.89L597.69 66C597.8 62.0643 599.206 58.2749 601.69 55.22C604.417 52.0157 607.938 49.5845 611.9 48.17C616.283 46.5146 620.947 45.7332 625.63 45.87C629.885 45.8873 634.078 46.8902 637.88 48.8C641.233 50.4899 643.984 53.1715 645.76 56.48C647.542 59.9763 648.238 63.9252 647.76 67.82L643.15 96.76L642.87 100.29C642.686 102.716 643.073 105.151 644 107.4L643.94 108.48H625.73ZM615 96.09C618.82 96.2367 622.173 94.55 625.06 91.03L626.94 81.13L622.1 81.07C619.302 81.0814 616.586 82.0125 614.37 83.72C613.299 84.5532 612.41 85.5954 611.755 86.7833C611.1 87.9713 610.693 89.28 610.56 90.63C610.444 91.2964 610.461 91.9794 610.613 92.6388C610.764 93.2982 611.045 93.9208 611.44 94.47C611.875 94.9888 612.42 95.4037 613.036 95.684C613.652 95.9644 614.323 96.1031 615 96.09Z" fill="#1C2328"/>
<path d="M679 81.42L694.87 47H715.51L679.51 117.73C676.843 123.31 673.743 127.34 670.21 129.82C666.532 132.354 662.145 133.656 657.68 133.54C654.89 133.448 652.121 133.029 649.43 132.29L650.85 118.59H653C655.084 118.632 657.155 118.255 659.09 117.48C660.994 116.586 662.536 115.069 663.46 113.18L666.1 108L656.26 47H675.59L679 81.42Z" fill="#1C2328"/>
<path d="M743.6 108.48C743.02 106.682 742.749 104.799 742.8 102.91C740.954 105.089 738.64 106.824 736.031 107.986C733.422 109.148 730.585 109.706 727.73 109.62C725.269 109.656 722.825 109.201 720.542 108.283C718.258 107.364 716.181 106 714.43 104.27C712.723 102.65 711.395 100.674 710.539 98.4827C709.684 96.2909 709.322 93.9375 709.48 91.59C709.456 88.5281 710.211 85.5104 711.673 82.8201C713.136 80.1298 715.258 77.8553 717.84 76.21C723.22 72.63 730.573 70.84 739.9 70.84L746.16 70.95L746.84 67.49L747.07 64.49C746.91 61.04 745.19 59.26 741.89 59.15C737.797 59.07 735.277 61.3234 734.33 65.91L715.57 66C715.679 62.0641 717.085 58.2745 719.57 55.22C722.297 52.0157 725.818 49.5845 729.78 48.17C734.163 46.5146 738.827 45.7332 743.51 45.87C747.768 45.8883 751.964 46.8911 755.77 48.8C759.121 50.49 761.869 53.1718 763.64 56.48C765.426 59.9747 766.123 63.925 765.64 67.82L761.03 96.76L760.75 100.29C760.542 102.728 760.912 105.181 761.83 107.45L761.77 108.53L743.6 108.48ZM732.91 96.09C736.743 96.2367 740.097 94.55 742.97 91.03L744.85 81.13L740 81.07C737.199 81.0799 734.479 82.0111 732.26 83.72C731.189 84.5532 730.3 85.5954 729.645 86.7833C728.99 87.9713 728.583 89.28 728.45 90.63C728.33 91.297 728.348 91.9813 728.501 92.6414C728.654 93.3015 728.939 93.9237 729.34 94.47C729.775 94.9913 730.322 95.4077 730.94 95.6882C731.558 95.9687 732.231 96.106 732.91 96.09Z" fill="#1C2328"/>
<path d="M271.09 108.48L285.42 25.69L311.74 25.75C322.127 25.79 329.88 27.76 335 31.66C340.12 35.56 342.453 41.04 342 48.1C341.427 56.82 336.65 62.9967 327.67 66.63C330.838 67.7223 333.512 69.9104 335.21 72.8C337.073 76.0472 337.877 79.7944 337.51 83.52C336.983 91.52 333.827 97.68 328.04 102C322.253 106.32 314.343 108.48 304.31 108.48H271.09ZM296.68 73.29L293.21 93.07L304.86 93.13C308.105 93.249 311.301 92.3044 313.96 90.44C315.132 89.6013 316.12 88.5316 316.863 87.2968C317.606 86.062 318.088 84.6882 318.28 83.26C319.34 76.9467 316.913 73.64 311 73.34L296.68 73.29ZM298.89 60.21H308.05C316.503 60.0233 321.24 56.7733 322.26 50.46C323.173 44.2333 319.953 41.0967 312.6 41.05L302.25 41L298.89 60.21Z" fill="#262626"/>
<path d="M388.05 64.3C386.128 64.0084 384.192 63.8182 382.25 63.73C376.637 63.5767 372.353 65.51 369.4 69.53L362.46 108.53H343.76L354.45 47L371.9 46.94L370.48 55C374.48 48.78 379.217 45.67 384.69 45.67C386.647 45.7243 388.592 45.9925 390.49 46.47L388.05 64.3Z" fill="#262626"/>
<path d="M420 108.48C419.415 106.683 419.144 104.799 419.2 102.91C414.993 107.53 409.97 109.767 404.13 109.62C401.669 109.656 399.225 109.201 396.942 108.283C394.658 107.364 392.581 106 390.83 104.27C389.123 102.65 387.795 100.674 386.939 98.4826C386.084 96.2909 385.722 93.9375 385.88 91.59C385.85 88.5269 386.601 85.5067 388.064 82.8153C389.527 80.1239 391.653 77.8504 394.24 76.21C399.62 72.63 406.973 70.84 416.3 70.84L422.55 70.95L423.24 67.49L423.46 64.49C423.307 61.0433 421.583 59.2633 418.29 59.15C414.2 59.07 411.67 61.33 410.73 65.91L392 66C392.11 62.0643 393.516 58.2749 396 55.22C398.723 52.0122 402.245 49.5802 406.21 48.17C410.608 46.4898 415.294 45.6913 420 45.82C424.255 45.8373 428.448 46.8401 432.25 48.75C435.603 50.4399 438.354 53.1214 440.13 56.43C441.912 59.9263 442.608 63.8752 442.13 67.77L437.52 96.71L437.24 100.24C437.032 102.678 437.402 105.131 438.32 107.4L438.26 108.48H420ZM409.32 96.09C413.14 96.2367 416.493 94.55 419.38 91.03L421.26 81.13L416.42 81.07C413.622 81.0813 410.906 82.0125 408.69 83.72C407.619 84.5531 406.73 85.5954 406.075 86.7833C405.42 87.9712 405.013 89.28 404.88 90.63C404.759 91.2963 404.775 91.9802 404.926 92.6403C405.077 93.3004 405.361 93.9229 405.76 94.47C406.195 94.9888 406.74 95.4037 407.356 95.684C407.972 95.9644 408.643 96.1031 409.32 96.09Z" fill="#262626"/>
<path d="M501.54 83.18L513.88 47H532.19L507.46 108.52H491.71L488.18 72.2L472 108.48H456.11L452.7 47H470.27L469.7 83.62L485.45 47H498.45L501.54 83.18Z" fill="#262626"/>
<path d="M548.11 108.48H529.35L540 47H558.8L548.11 108.48ZM541.69 31.48C541.625 30.1783 541.854 28.8786 542.359 27.6773C542.865 26.476 543.634 25.4038 544.61 24.54C546.612 22.6717 549.262 21.6566 552 21.71C554.657 21.6225 557.254 22.512 559.3 24.21C560.255 25.011 561.024 26.0116 561.551 27.1416C562.078 28.2715 562.35 29.5032 562.35 30.75C562.425 32.0598 562.203 33.3697 561.701 34.5818C561.199 35.794 560.429 36.877 559.45 37.75C557.417 39.5947 554.744 40.5741 552 40.48C549.378 40.5393 546.821 39.6598 544.79 38C543.816 37.2078 543.032 36.2072 542.495 35.072C541.959 33.9367 541.684 32.6956 541.69 31.44V31.48Z" fill="#262626"/>
<path d="M590.76 47L580 110.41C579.087 117.743 576.32 123.44 571.7 127.5C567.08 131.56 561.203 133.56 554.07 133.5C550.92 133.385 547.784 133.024 544.69 132.42L546.23 117.86C547.924 118.27 549.657 118.502 551.4 118.55C556.9 118.623 560.16 115.703 561.18 109.79L572 47H590.76ZM573.41 31.41C573.34 30.0913 573.574 28.7741 574.094 27.5603C574.614 26.3465 575.407 25.2686 576.41 24.41C578.421 22.5998 581.045 21.6205 583.75 21.67C586.393 21.537 588.988 22.4208 591 24.14C591.963 24.9451 592.738 25.9515 593.27 27.0883C593.802 28.2252 594.078 29.4648 594.08 30.72C594.138 31.9984 593.916 33.274 593.429 34.4574C592.942 35.6407 592.201 36.7031 591.26 37.57C589.246 39.3782 586.654 40.4089 583.948 40.4767C581.243 40.5445 578.602 39.6451 576.5 37.94C575.541 37.1421 574.767 36.1444 574.233 35.0165C573.7 33.8886 573.419 32.6578 573.41 31.41Z" fill="#262626"/>
<path d="M625.73 108.48C625.145 106.683 624.874 104.799 624.93 102.91C620.723 107.53 615.7 109.767 609.86 109.62C607.399 109.656 604.955 109.201 602.672 108.283C600.388 107.364 598.311 106 596.56 104.27C594.853 102.65 593.525 100.674 592.669 98.4827C591.814 96.2909 591.452 93.9375 591.61 91.59C591.589 88.5253 592.349 85.5057 593.816 82.8152C595.284 80.1247 597.412 77.8517 600 76.21C605.333 72.63 612.667 70.84 622 70.84L628.25 70.95L628.94 67.49L629.16 64.49C629.053 61.03 627.333 59.2433 624 59.13C619.91 59.05 617.38 61.31 616.44 65.89L597.69 66C597.8 62.0643 599.206 58.2749 601.69 55.22C604.417 52.0157 607.938 49.5845 611.9 48.17C616.283 46.5146 620.947 45.7332 625.63 45.87C629.885 45.8873 634.078 46.8902 637.88 48.8C641.233 50.4899 643.984 53.1715 645.76 56.48C647.542 59.9763 648.238 63.9252 647.76 67.82L643.15 96.76L642.87 100.29C642.686 102.716 643.073 105.151 644 107.4L643.94 108.48H625.73ZM615 96.09C618.82 96.2367 622.173 94.55 625.06 91.03L626.94 81.13L622.1 81.07C619.302 81.0814 616.586 82.0125 614.37 83.72C613.299 84.5532 612.41 85.5954 611.755 86.7833C611.1 87.9713 610.693 89.28 610.56 90.63C610.444 91.2964 610.461 91.9794 610.613 92.6388C610.764 93.2982 611.045 93.9208 611.44 94.47C611.875 94.9888 612.42 95.4037 613.036 95.684C613.652 95.9644 614.323 96.1031 615 96.09Z" fill="#262626"/>
<path d="M679 81.42L694.87 47H715.51L679.51 117.73C676.843 123.31 673.743 127.34 670.21 129.82C666.532 132.354 662.145 133.656 657.68 133.54C654.89 133.448 652.121 133.029 649.43 132.29L650.85 118.59H653C655.084 118.632 657.155 118.255 659.09 117.48C660.994 116.586 662.536 115.069 663.46 113.18L666.1 108L656.26 47H675.59L679 81.42Z" fill="#262626"/>
<path d="M743.6 108.48C743.02 106.682 742.749 104.799 742.8 102.91C740.954 105.089 738.64 106.824 736.031 107.986C733.422 109.148 730.585 109.706 727.73 109.62C725.269 109.656 722.825 109.201 720.542 108.283C718.258 107.364 716.181 106 714.43 104.27C712.723 102.65 711.395 100.674 710.539 98.4827C709.684 96.2909 709.322 93.9375 709.48 91.59C709.456 88.5281 710.211 85.5104 711.673 82.8201C713.136 80.1298 715.258 77.8553 717.84 76.21C723.22 72.63 730.573 70.84 739.9 70.84L746.16 70.95L746.84 67.49L747.07 64.49C746.91 61.04 745.19 59.26 741.89 59.15C737.797 59.07 735.277 61.3234 734.33 65.91L715.57 66C715.679 62.0641 717.085 58.2745 719.57 55.22C722.297 52.0157 725.818 49.5845 729.78 48.17C734.163 46.5146 738.827 45.7332 743.51 45.87C747.768 45.8883 751.964 46.8911 755.77 48.8C759.121 50.49 761.869 53.1718 763.64 56.48C765.426 59.9747 766.123 63.925 765.64 67.82L761.03 96.76L760.75 100.29C760.542 102.728 760.912 105.181 761.83 107.45L761.77 108.53L743.6 108.48ZM732.91 96.09C736.743 96.2367 740.097 94.55 742.97 91.03L744.85 81.13L740 81.07C737.199 81.0799 734.479 82.0111 732.26 83.72C731.189 84.5532 730.3 85.5954 729.645 86.7833C728.99 87.9713 728.583 89.28 728.45 90.63C728.33 91.297 728.348 91.9813 728.501 92.6414C728.654 93.3015 728.939 93.9237 729.34 94.47C729.775 94.9913 730.322 95.4077 730.94 95.6882C731.558 95.9687 732.231 96.106 732.91 96.09Z" fill="#262626"/>
<path d="M265.61 208.55H303.71L302.12 217.48H253.33L267.71 134.69H278.46L265.61 208.55Z" fill="#262626"/>
<path d="M339.7 218.62C332.04 218.467 326.04 215.643 321.7 210.15C317.36 204.657 315.54 197.623 316.24 189.05L316.53 186.61C317.115 180.705 318.982 174.999 322 169.89C324.605 165.229 328.353 161.306 332.89 158.49C337.065 155.96 341.88 154.686 346.76 154.82C353.093 154.973 358.06 157.077 361.66 161.13C365.26 165.183 367.23 170.68 367.57 177.62C367.687 180.085 367.613 182.556 367.35 185.01L366.72 189.73H326.52C325.853 195.31 326.773 200.05 329.28 203.95C331.787 207.85 335.543 209.867 340.55 210C346.617 210.147 352.227 207.417 357.38 201.81L363.3 206.81C360.738 210.5 357.302 213.499 353.3 215.54C349.093 217.68 344.419 218.739 339.7 218.62ZM346.24 163.41C344.19 163.331 342.145 163.674 340.232 164.417C338.319 165.16 336.579 166.288 335.12 167.73C331.96 170.723 329.45 175.177 327.59 181.09L357.5 181.15L357.73 180.24C358.33 175.46 357.56 171.49 355.42 168.33C354.428 166.803 353.066 165.552 351.462 164.692C349.857 163.831 348.061 163.391 346.24 163.41Z" fill="#262626"/>
<path d="M411.12 217.48C410.857 216.42 410.722 215.332 410.72 214.24L410.89 211C405.243 216.227 399.243 218.767 392.89 218.62C387.47 218.54 383.063 216.823 379.67 213.47C378.007 211.85 376.729 209.879 375.928 207.7C375.126 205.521 374.823 203.191 375.04 200.88C375.133 197.834 375.96 194.855 377.45 192.197C378.94 189.538 381.05 187.279 383.6 185.61C388.933 181.95 395.933 180.12 404.6 180.12L415.34 180.18L416.02 175.29C416.4 171.61 415.69 168.71 413.89 166.56C412.09 164.41 409.39 163.31 405.79 163.24C402.48 163.1 399.21 164.002 396.44 165.82C395.164 166.607 394.062 167.646 393.203 168.874C392.343 170.101 391.743 171.492 391.44 172.96L381.09 173.02C381.412 169.453 382.891 166.09 385.3 163.44C387.906 160.552 391.162 158.328 394.8 156.95C398.614 155.428 402.694 154.683 406.8 154.76C413.207 154.92 418.207 156.863 421.8 160.59C425.393 164.317 426.89 169.273 426.29 175.46L421.29 205.94L421 210.32C420.927 212.405 421.156 214.49 421.68 216.51L421.57 217.51L411.12 217.48ZM394.97 209.48C398.244 209.564 401.478 208.748 404.32 207.12C407.32 205.418 409.91 203.08 411.91 200.27L414.13 187.59L406.34 187.53C399.86 187.53 394.893 188.553 391.44 190.6C389.835 191.47 388.464 192.715 387.445 194.231C386.426 195.746 385.79 197.485 385.59 199.3C385.376 200.573 385.444 201.878 385.79 203.122C386.135 204.366 386.75 205.519 387.59 206.5C389.29 208.45 391.75 209.45 395 209.52L394.97 209.48Z" fill="#262626"/>
<path d="M438.52 186.61C439.258 180.493 441.116 174.564 444 169.12C446.268 164.641 449.684 160.845 453.9 158.12C457.731 155.767 462.167 154.589 466.66 154.73C473.787 154.89 479.17 157.583 482.81 162.81L484.86 155.93H494.3L484 216.17C482.9 224.023 479.717 230.307 474.45 235.02C469.183 239.733 462.7 241.98 455 241.76C450.825 241.678 446.723 240.652 443 238.76C439.359 237.013 436.251 234.323 434 230.97L439.85 224.66C443.57 230.16 448.48 232.983 454.58 233.13C459.086 233.423 463.533 231.973 467 229.08C470.387 226.2 472.633 222.107 473.74 216.8L474.88 211.34C472.628 213.721 469.899 215.6 466.872 216.854C463.844 218.109 460.586 218.71 457.31 218.62C453.745 218.591 450.266 217.513 447.31 215.52C444.347 213.392 442.065 210.449 440.74 207.05C439.137 203.118 438.27 198.925 438.18 194.68C438.126 191.986 438.24 189.29 438.52 186.61ZM448.52 192.43C448.407 197.843 449.347 202.037 451.34 205.01C453.333 207.983 456.333 209.543 460.34 209.69C466.48 209.843 471.77 206.843 476.21 200.69L481 172.44C478.72 166.84 474.607 163.923 468.66 163.69C463.087 163.537 458.51 165.81 454.93 170.51C451.35 175.21 449.237 181.543 448.59 189.51L448.52 192.43Z" fill="#262626"/>
<path d="M538.54 211.4C533.733 216.36 527.613 218.767 520.18 218.62C514.3 218.467 509.967 216.363 507.18 212.31C504.393 208.257 503.333 202.72 504 195.7L510.6 155.96H520.89L514.23 195.87C514.049 197.494 514.012 199.13 514.12 200.76C514.166 203.123 515.032 205.396 516.57 207.19C517.351 207.988 518.285 208.621 519.316 209.05C520.346 209.48 521.453 209.697 522.57 209.69C525.96 209.917 529.347 209.203 532.357 207.627C535.368 206.051 537.884 203.675 539.63 200.76L547.36 155.96H557.66L547 217.48H537.27L538.54 211.4Z" fill="#262626"/>
<path d="M588.92 218.62C581.26 218.467 575.26 215.643 570.92 210.15C566.58 204.657 564.76 197.623 565.46 189.05L565.75 186.61C566.323 180.708 568.176 175.002 571.18 169.89C573.785 165.229 577.533 161.306 582.07 158.49C586.262 155.948 591.1 154.673 596 154.82C602.327 154.973 607.293 157.077 610.9 161.13C614.507 165.183 616.477 170.68 616.81 177.62C616.928 180.086 616.852 182.557 616.58 185.01L615.96 189.73H575.76C575.093 195.31 576.013 200.05 578.52 203.95C581.027 207.85 584.777 209.867 589.77 210C595.843 210.147 601.453 207.417 606.6 201.81L612.52 206.81C609.958 210.5 606.523 213.499 602.52 215.54C598.313 217.68 593.639 218.739 588.92 218.62ZM595.46 163.41C593.41 163.331 591.365 163.674 589.452 164.417C587.539 165.16 585.8 166.288 584.34 167.73C581.18 170.723 578.67 175.177 576.81 181.09L606.72 181.15L606.94 180.24C607.547 175.46 606.78 171.49 604.64 168.33C603.648 166.803 602.286 165.552 600.682 164.692C599.077 163.831 597.281 163.391 595.46 163.41Z" fill="#262626"/>
</g>
<defs>
<linearGradient id="paint0_linear_359_2215" x1="-37.45" y1="70.29" x2="168" y2="214.83" gradientUnits="userSpaceOnUse">
<stop stop-color="#F79940"/>
<stop offset="0.01" stop-color="#F79940"/>
<stop offset="0.66" stop-color="#EB701D"/>
<stop offset="1" stop-color="#E66110"/>
</linearGradient>
<linearGradient id="paint1_linear_359_2215" x1="96.21" y1="179.18" x2="218.32" y2="251.2" gradientUnits="userSpaceOnUse">
<stop stop-color="#34A6FC"/>
<stop offset="0.01" stop-color="#33A5FB"/>
<stop offset="0.42" stop-color="#1786E1"/>
<stop offset="0.76" stop-color="#0674D1"/>
<stop offset="1" stop-color="#006DCB"/>
</linearGradient>
<clipPath id="clip0_359_2215">
<rect width="765.78" height="260.45" fill="white"/>
</clipPath>
</defs>
</svg>
