<svg width="12" height="22" viewBox="0 0 12 22" fill="none" xmlns="http://www.w3.org/2000/svg">
<path d="M9.54992 20.92L0.757905 11.9936C0.641012 11.8749 0.553343 11.7435 0.494896 11.5994C0.43645 11.4553 0.407227 11.307 0.407227 11.1544C0.407227 11.0018 0.43645 10.8534 0.494896 10.7093C0.553343 10.5652 0.641012 10.4338 0.757905 10.3151L9.54992 1.38875C9.8171 1.11748 10.1511 0.977612 10.5519 0.969135C10.9526 0.960658 11.2866 1.09205 11.5538 1.36332C11.8377 1.65154 11.9796 1.9991 11.9796 2.406C11.9796 2.81291 11.8377 3.16047 11.5538 3.44869L3.96411 11.1544L11.5538 18.8601C11.8377 19.1483 11.9796 19.4916 11.9796 19.89C11.9796 20.2885 11.846 20.6233 11.5788 20.8946C11.295 21.1828 10.9526 21.3269 10.5519 21.3269C10.1511 21.3269 9.8171 21.1913 9.54992 20.92Z" fill="#F79940"/>
</svg>
