<svg width="13" height="22" viewBox="0 0 13 22" fill="none" xmlns="http://www.w3.org/2000/svg">
<path d="M3.30604 20.92L12.0981 11.9936C12.2149 11.8749 12.3026 11.7435 12.3611 11.5994C12.4195 11.4553 12.4487 11.307 12.4487 11.1544C12.4487 11.0018 12.4195 10.8534 12.3611 10.7093C12.3026 10.5652 12.2149 10.4338 12.0981 10.3151L3.30604 1.38875C3.03886 1.11748 2.70488 0.977612 2.3041 0.969135C1.90332 0.960658 1.56934 1.09205 1.30216 1.36332C1.01828 1.65154 0.876337 1.9991 0.876337 2.406C0.876337 2.81291 1.01828 3.16047 1.30216 3.44869L8.89185 11.1544L1.30216 18.8601C1.01828 19.1483 0.876337 19.4916 0.876337 19.89C0.876337 20.2885 1.00993 20.6233 1.27711 20.8946C1.561 21.1828 1.90332 21.3269 2.3041 21.3269C2.70488 21.3269 3.03886 21.1913 3.30604 20.92Z" fill="#F79940"/>
</svg>
