<svg width="20" height="20" viewBox="0 0 20 20" fill="none" xmlns="http://www.w3.org/2000/svg">
<circle cx="10" cy="10" r="10" fill="#F79940"/>
<path d="M8.8415 15.3016L13.8308 10.4589C13.8972 10.3945 13.9469 10.3232 13.9801 10.245C14.0133 10.1668 14.0298 10.0863 14.0298 10.0036C14.0298 9.92077 14.0133 9.84029 13.9801 9.76211C13.9469 9.68392 13.8972 9.61264 13.8308 9.54825L8.8415 4.70548C8.68988 4.55831 8.50035 4.48242 8.27292 4.47782C8.04548 4.47323 7.85595 4.54451 7.70433 4.69168C7.54323 4.84805 7.46268 5.03661 7.46268 5.25736C7.46268 5.47811 7.54323 5.66667 7.70433 5.82304L12.0114 10.0036L7.70433 14.1841C7.54323 14.3404 7.46268 14.5267 7.46268 14.7429C7.46268 14.959 7.53849 15.1407 7.69012 15.2878C7.85122 15.4442 8.04548 15.5224 8.27292 15.5224C8.50035 15.5224 8.68988 15.4488 8.8415 15.3016Z" fill="#006DCB"/>
</svg>
