<svg width="11" height="6" viewBox="0 0 11 6" fill="none" xmlns="http://www.w3.org/2000/svg">
<path d="M0.219859 1.25974L5.043 5.81818C5.10713 5.87879 5.17812 5.92424 5.25599 5.95455C5.33386 5.98485 5.41401 6 5.49646 6C5.57891 6 5.65906 5.98485 5.73693 5.95455C5.8148 5.92424 5.88579 5.87879 5.94992 5.81818L10.7731 1.25974C10.9196 1.12121 10.9952 0.948052 10.9998 0.74026C11.0044 0.532467 10.9334 0.359307 10.7868 0.220779C10.6311 0.0735931 10.4433 -6.63888e-09 10.2234 -9.26066e-09C10.0036 -1.18824e-08 9.81576 0.0735931 9.66003 0.220779L5.49646 4.15584L1.33289 0.220779C1.17716 0.073593 0.991654 -1.19348e-07 0.776376 -1.21915e-07C0.561098 -1.24483e-07 0.380172 0.0692643 0.2336 0.207792C0.0778666 0.354978 6.51997e-08 0.532467 6.27218e-08 0.74026C6.02439e-08 0.948052 0.0732871 1.12121 0.219859 1.25974Z" fill="#FAFAFA"/>
</svg>
