<svg width="37" height="37" viewBox="0 0 37 37" fill="none" xmlns="http://www.w3.org/2000/svg">
<circle cx="18.5" cy="18.5" r="18.5" fill="#006DCB"/>
<path d="M17 28.5L26.1407 19.3594C26.2622 19.2379 26.3533 19.1033 26.4141 18.9558C26.4749 18.8082 26.5052 18.6563 26.5052 18.5C26.5052 18.3438 26.4749 18.1919 26.4141 18.0443C26.3533 17.8967 26.2622 17.7622 26.1407 17.6407L17 8.50003C16.7223 8.22225 16.375 8.07902 15.9584 8.07034C15.5417 8.06166 15.1945 8.19621 14.9167 8.47399C14.6216 8.76913 14.474 9.12503 14.474 9.5417C14.474 9.95836 14.6216 10.3143 14.9167 10.6094L22.8073 18.5L14.9167 26.3907C14.6216 26.6858 14.474 27.0374 14.474 27.4453C14.474 27.8533 14.6129 28.1962 14.8907 28.474C15.1858 28.7691 15.5417 28.9167 15.9584 28.9167C16.375 28.9167 16.7223 28.7778 17 28.5Z" fill="#F79940"/>
</svg>
